<svg width="175" height="28" viewBox="0 0 175 28" fill="none" xmlns="http://www.w3.org/2000/svg">
<path d="M54.7785 6.35644H44.0551V11.6436H52.0752V14.8812H44.0551V20.4356H54.7785V23.7921H40V3H54.7785V6.35644Z" fill="white"/>
<path d="M64.703 24C63.2411 24 61.9595 23.6832 60.8581 23.0495C59.7568 22.4158 58.8957 21.5347 58.2749 20.4059C57.6541 19.2574 57.3437 17.9307 57.3437 16.4257C57.3437 14.901 57.6541 13.5644 58.2749 12.4158C58.8957 11.2673 59.7668 10.3663 60.8882 9.71287C62.0096 9.05941 63.3012 8.73267 64.763 8.73267C66.345 8.73267 67.7468 9.11881 68.9683 9.89109C70.2099 10.6634 71.081 11.703 71.5816 13.0099L68.0071 14.0198C67.7668 13.4455 67.3663 12.9901 66.8056 12.6535C66.2649 12.3168 65.6441 12.1485 64.9433 12.1485C64.2424 12.1485 63.6216 12.3267 63.0809 12.6832C62.5603 13.0396 62.1498 13.5347 61.8494 14.1683C61.569 14.802 61.4288 15.5446 61.4288 16.396C61.4288 17.6832 61.7493 18.703 62.3901 19.4554C63.0309 20.2079 63.8919 20.5842 64.9733 20.5842C65.6542 20.5842 66.2749 20.4257 66.8356 20.1089C67.3963 19.7723 67.8169 19.3168 68.0972 18.7426L71.6417 19.7525C71.101 21.0396 70.1999 22.0693 68.9383 22.8416C67.6967 23.6139 66.2849 24 64.703 24Z" fill="white"/>
<path d="M81.3988 24C79.9369 24 78.6353 23.6931 77.4939 23.0792C76.3524 22.4455 75.4513 21.5644 74.7905 20.4356C74.1497 19.2871 73.8293 17.9406 73.8293 16.396C73.8293 14.8317 74.1597 13.4752 74.8205 12.3267C75.5014 11.1782 76.4225 10.297 77.584 9.68317C78.7454 9.04951 80.0471 8.73267 81.4889 8.73267C82.9307 8.73267 84.2323 9.04951 85.3938 9.68317C86.5552 10.297 87.4764 11.1782 88.1572 12.3267C88.8381 13.4554 89.1785 14.7921 89.1785 16.3366C89.1785 17.901 88.8281 19.2574 88.1272 20.4059C87.4463 21.5545 86.5152 22.4455 85.3337 23.0792C84.1722 23.6931 82.8606 24 81.3988 24ZM81.3687 20.5842C81.9895 20.5842 82.5802 20.4356 83.1409 20.1386C83.7016 19.8218 84.1622 19.3564 84.5227 18.7426C84.8831 18.1089 85.0634 17.3069 85.0634 16.3366C85.0634 15.4059 84.8931 14.6337 84.5527 14.0198C84.2123 13.3861 83.7617 12.9208 83.201 12.6238C82.6603 12.3069 82.0696 12.1485 81.4288 12.1485C80.808 12.1485 80.2273 12.3069 79.6866 12.6238C79.166 12.9208 78.7454 13.3861 78.425 14.0198C78.1246 14.6337 77.9745 15.4257 77.9745 16.396C77.9745 17.3267 78.1246 18.1089 78.425 18.7426C78.7254 19.3564 79.1359 19.8218 79.6566 20.1386C80.1772 20.4356 80.7479 20.5842 81.3687 20.5842Z" fill="white"/>
<path d="M92.1217 8.9406H95.6061L95.8765 10.396C96.3571 9.90099 96.9278 9.50495 97.5886 9.20792C98.2695 8.89109 99.0104 8.73267 99.8114 8.73267C100.773 8.73267 101.654 8.94059 102.455 9.35644C103.256 9.75248 103.897 10.3267 104.377 11.0792C104.918 10.3465 105.619 9.77228 106.48 9.35644C107.361 8.94059 108.312 8.73267 109.333 8.73267C110.515 8.73267 111.536 8.9802 112.397 9.47525C113.278 9.9703 113.959 10.6931 114.44 11.6436C114.92 12.5743 115.161 13.7327 115.161 15.1188V23.7921H111.316V15.6238C111.316 14.495 111.066 13.6436 110.565 13.0693C110.064 12.495 109.353 12.2079 108.432 12.2079C107.491 12.2079 106.75 12.505 106.209 13.099C105.689 13.6931 105.428 14.5545 105.428 15.6832V23.7921H101.584V15.6238C101.584 14.495 101.353 13.6436 100.893 13.0693C100.452 12.495 99.7714 12.2079 98.8502 12.2079C97.909 12.2079 97.1881 12.505 96.6875 13.099C96.2069 13.6733 95.9666 14.5248 95.9666 15.6535V23.7921H92.1217V8.9406Z" fill="white"/>
<path d="M128.432 6.35644H127.35L121.163 23.7921H116.987L124.527 3H131.225L138.765 23.7921H134.589L128.432 6.35644ZM121.553 15.6535H133.808V19.0099H121.553V15.6535Z" fill="#FFB22C"/>
<path d="M140.845 8.9406H144.329L144.6 10.8416C145.02 10.3267 145.491 9.91089 146.011 9.59406C146.552 9.25743 147.143 9.0297 147.784 8.91089C148.425 8.77228 149.095 8.78218 149.796 8.9406V12.505C149.256 12.3267 148.685 12.2772 148.084 12.3564C147.503 12.4356 146.953 12.6436 146.432 12.9802C145.931 13.3168 145.511 13.802 145.17 14.4356C144.85 15.0495 144.69 15.8317 144.69 16.7822V23.7921H140.845V8.9406Z" fill="#FFB22C"/>
<path d="M153.337 8.9406V4.78218H157.242V8.9406H160.546V12.297H157.242V18.3267C157.242 19.099 157.402 19.6436 157.723 19.9604C158.063 20.2772 158.484 20.4455 158.984 20.4653C159.505 20.4851 160.026 20.4554 160.546 20.3762V23.6436C159.625 23.8416 158.724 23.901 157.843 23.8218C156.982 23.7426 156.211 23.5149 155.53 23.1386C154.849 22.7426 154.308 22.1485 153.908 21.3564C153.527 20.5644 153.337 19.5545 153.337 18.3267V12.297H151.204V8.9406H153.337Z" fill="#FFB22C"/>
<path d="M165.989 18.9505C166.109 19.4455 166.309 19.8218 166.589 20.0792C166.89 20.3366 167.22 20.5248 167.581 20.6436C167.961 20.7426 168.342 20.7921 168.722 20.7921C169.423 20.7921 169.974 20.6634 170.374 20.4059C170.775 20.1287 170.975 19.7822 170.975 19.3663C170.975 19.0099 170.835 18.7327 170.554 18.5347C170.274 18.3168 169.914 18.1584 169.473 18.0594C169.033 17.9406 168.582 17.8218 168.121 17.703C167.581 17.5644 167 17.4158 166.379 17.2574C165.778 17.0792 165.208 16.8317 164.667 16.5149C164.126 16.198 163.676 15.7921 163.315 15.297C162.955 14.7822 162.775 14.1386 162.775 13.3663C162.775 12.4554 163.025 11.6535 163.526 10.9604C164.046 10.2673 164.757 9.72277 165.658 9.32673C166.579 8.93069 167.641 8.73267 168.842 8.73267C170.264 8.73267 171.466 9.0297 172.447 9.62376C173.428 10.2178 174.139 11.0693 174.579 12.1782L171.185 13.1287C171.085 12.8515 170.915 12.6238 170.675 12.4455C170.434 12.2673 170.144 12.1386 169.803 12.0594C169.483 11.9802 169.153 11.9406 168.812 11.9406C168.231 11.9406 167.751 12.0594 167.37 12.297C166.99 12.5149 166.8 12.8218 166.8 13.2178C166.8 13.4554 166.87 13.6535 167.01 13.8119C167.15 13.9505 167.34 14.0693 167.581 14.1683C167.841 14.2673 168.131 14.3564 168.452 14.4356C168.792 14.5149 169.163 14.604 169.563 14.703C170.184 14.8614 170.805 15.0495 171.426 15.2673C172.066 15.4653 172.647 15.7228 173.168 16.0396C173.708 16.3564 174.139 16.7822 174.459 17.3168C174.78 17.8515 174.96 18.5248 175 19.3366C175 20.2079 174.75 21 174.249 21.7129C173.748 22.4059 173.028 22.9604 172.086 23.3762C171.145 23.7921 170.004 24 168.662 24C167.1 24 165.768 23.6733 164.667 23.0198C163.586 22.3663 162.875 21.3465 162.534 19.9604L165.989 18.9505Z" fill="#FFB22C"/>
<path d="M15.7486 0C7.05116 0 0 7.05116 0 15.7486C0 20.6967 2.284 25.1112 5.85252 27.9982L6.93422 22.6682C4.7562 20.366 3.70191 17.8024 3.3255 16.8413C3.01488 17.1373 2.8011 17.532 2.74263 17.9796C2.61107 17.7348 2.55077 17.4497 2.58366 17.1537C2.67319 16.3534 3.42052 15.7742 4.25189 15.8619C4.63195 15.9021 4.9645 16.0739 5.20386 16.326C5.12712 16.3096 5.04855 16.295 4.96815 16.2877C4.60637 16.2493 4.25737 16.3059 3.94492 16.4375C4.59175 17.6398 6.97625 21.4148 12.0942 22.8308C14.455 23.4832 16.9692 23.4832 19.3299 22.8308C24.4479 21.4148 26.8342 17.6398 27.4792 16.4375C27.1668 16.3077 26.8178 16.2493 26.456 16.2877C26.3756 16.2968 26.297 16.3096 26.2203 16.326C26.4597 16.0739 26.7922 15.9021 27.1723 15.8619C28.0037 15.7742 28.751 16.3534 28.8405 17.1537C28.8734 17.4497 28.8131 17.733 28.6815 17.9796C28.6231 17.532 28.4093 17.1373 28.0987 16.8413C27.7259 17.7933 26.6862 20.3203 24.5484 22.6061L25.6429 28C29.2133 25.113 31.4954 20.6985 31.4954 15.7505C31.4954 7.05116 24.4461 0 15.7486 0ZM15.7486 5.90003C17.9157 5.90003 19.6789 8.07256 19.6789 10.7439H18.2354C18.2354 8.86922 17.119 7.34351 15.7468 7.34351C14.3746 7.34351 13.2582 8.86922 13.2582 10.7439H11.8165C11.8165 8.07256 13.5797 5.90003 15.7486 5.90003ZM19.1381 21.7747C18.0253 22.0817 16.8742 22.2388 15.7121 22.2388C14.55 22.2388 13.3988 22.0835 12.2861 21.7747C10.2853 21.2211 8.7267 20.2892 7.54268 19.3025L9.1159 11.5424H22.3777L23.94 19.2495C22.7505 20.2545 21.1736 21.2101 19.1381 21.7747Z" fill="#80B501"/>
</svg>
