<svg width="64" height="63" viewBox="0 0 64 63" fill="none" xmlns="http://www.w3.org/2000/svg">
<path d="M5.33406 31.4999C5.33334 26.5704 6.7429 21.7404 9.40132 17.563C12.0598 13.3855 15.8596 10.0294 20.3657 7.87909C24.8718 5.72874 29.902 4.87104 34.8803 5.40419C39.8586 5.93735 44.5838 7.83981 48.5147 10.8937H44.4583C44.1069 10.8971 43.7711 11.0368 43.5238 11.2826C43.2766 11.5284 43.1378 11.8603 43.1378 12.2062C43.1378 12.5521 43.2766 12.884 43.5238 13.1298C43.7711 13.3756 44.1069 13.5153 44.4583 13.5187H52.0007C52.3543 13.5187 52.6935 13.3804 52.9435 13.1342C53.1936 12.8881 53.3341 12.5543 53.3341 12.2061V4.78138C53.3358 4.60796 53.3025 4.43592 53.2363 4.27521C53.1701 4.1145 53.0721 3.9683 52.9481 3.84507C52.8242 3.72184 52.6766 3.62402 52.514 3.55727C52.3514 3.49051 52.1769 3.45614 52.0007 3.45614C51.8246 3.45614 51.6501 3.49051 51.4875 3.55727C51.3249 3.62402 51.1773 3.72184 51.0533 3.84507C50.9294 3.9683 50.8314 4.1145 50.7652 4.27521C50.699 4.43592 50.6657 4.60796 50.6674 4.78138V9.22583C44.8535 4.50469 37.4165 2.1676 29.899 2.6993C22.3815 3.23099 15.3604 6.59067 10.2918 12.0815C5.22327 17.5723 2.49625 24.773 2.67635 32.19C2.85646 39.6069 5.92989 46.6711 11.2592 51.9173C11.3825 52.0414 11.5295 52.1403 11.6919 52.2081C11.8543 52.2759 12.0287 52.3114 12.2051 52.3124C12.3814 52.3134 12.5563 52.2799 12.7194 52.2139C12.8825 52.148 13.0308 52.0508 13.1555 51.928C13.2802 51.8052 13.3789 51.6593 13.446 51.4987C13.513 51.3381 13.547 51.166 13.546 50.9924C13.5449 50.8188 13.5089 50.6471 13.44 50.4873C13.3711 50.3275 13.2707 50.1827 13.1446 50.0613C10.6606 47.6295 8.69126 44.7368 7.35059 41.5507C6.00992 38.3646 5.32452 34.9484 5.33406 31.4999ZM20.3471 55.119C19.5867 54.7547 18.8442 54.3552 18.1221 53.9219C17.8202 53.7406 17.4576 53.6847 17.1139 53.7665C16.7702 53.8483 16.4736 54.0612 16.2894 54.3583C16.1051 54.6554 16.0483 55.0124 16.1315 55.3507C16.2146 55.689 16.4309 55.981 16.7327 56.1624C17.5274 56.6396 18.3447 57.0793 19.1819 57.4799C19.3394 57.5553 19.5104 57.5993 19.6852 57.6096C19.86 57.6199 20.0351 57.5961 20.2006 57.5398C20.366 57.4834 20.5186 57.3955 20.6495 57.2812C20.7805 57.1668 20.8873 57.0281 20.9638 56.8731C21.0403 56.7181 21.0851 56.5497 21.0955 56.3777C21.1059 56.2056 21.0818 56.0333 21.0246 55.8704C20.9674 55.7075 20.8781 55.5573 20.7619 55.4284C20.6457 55.2995 20.5048 55.1944 20.3473 55.119H20.3471ZM56.0066 20.0527C56.0829 20.2078 56.1895 20.3466 56.3203 20.4612C56.4512 20.5758 56.6036 20.6638 56.769 20.7204C56.9344 20.777 57.1095 20.8009 57.2843 20.7908C57.4591 20.7808 57.6302 20.7369 57.7878 20.6618C57.9454 20.5867 58.0864 20.4817 58.2028 20.3529C58.3192 20.2241 58.4086 20.074 58.4661 19.9112C58.5235 19.7484 58.5479 19.576 58.5376 19.404C58.5274 19.2319 58.4829 19.0635 58.4066 18.9084C58.0008 18.0841 57.5554 17.2793 57.0719 16.4967C56.9809 16.3494 56.8613 16.2212 56.72 16.1194C56.5786 16.0176 56.4183 15.9442 56.2482 15.9035C55.9045 15.8211 55.5417 15.8764 55.2396 16.0574C54.9374 16.2383 54.7206 16.53 54.6369 16.8683C54.5532 17.2065 54.6095 17.5637 54.7933 17.8611C55.2326 18.5724 55.6375 19.3037 56.0066 20.0527ZM35.1641 57.566C34.3223 57.6644 33.4707 57.723 32.6322 57.7429C32.285 57.756 31.9567 57.902 31.7172 58.1498C31.4777 58.3976 31.346 58.7276 31.35 59.0696C31.354 59.4116 31.4936 59.7386 31.7388 59.9808C31.9841 60.2231 32.3158 60.3615 32.6632 60.3666C32.6736 60.3666 32.6847 60.3666 32.6951 60.366C33.6169 60.3448 34.5524 60.2799 35.4769 60.1725C35.8278 60.1313 36.1478 59.9547 36.3665 59.6815C36.5852 59.4083 36.6848 59.0608 36.6434 58.7153C36.602 58.3699 36.4229 58.0547 36.1456 57.8391C35.8683 57.6235 35.5154 57.5251 35.1644 57.5655L35.1641 57.566ZM27.5757 57.3878C26.7414 57.2505 25.9143 57.0739 25.0972 56.8587C24.7555 56.7688 24.3915 56.8162 24.0853 56.9905C23.779 57.1647 23.5557 57.4516 23.4644 57.788C23.373 58.1244 23.4212 58.4827 23.5982 58.7841C23.7753 59.0855 24.0667 59.3054 24.4084 59.3953C25.308 59.6316 26.2186 59.8256 27.1369 59.9766C27.3096 60.0049 27.4863 59.9995 27.6569 59.9607C27.8275 59.9218 27.9886 59.8503 28.1311 59.7501C28.2736 59.6499 28.3947 59.5231 28.4874 59.3769C28.5801 59.2307 28.6426 59.0679 28.6714 58.8979C28.7002 58.7279 28.6948 58.554 28.6553 58.3861C28.6158 58.2182 28.5431 58.0596 28.4414 57.9193C28.3396 57.779 28.2108 57.6599 28.0623 57.5686C27.9137 57.4773 27.7484 57.4158 27.5757 57.3874V57.3878ZM60.0248 30.867C59.6713 30.8586 59.3289 30.9886 59.0728 31.2286C58.8167 31.4685 58.6678 31.7988 58.6589 32.1467C58.6374 32.9798 58.5763 33.8115 58.4759 34.639C58.4342 34.9847 58.5335 35.3326 58.7521 35.6062C58.9708 35.8798 59.2908 36.0568 59.6419 36.0982C59.6951 36.1041 59.7486 36.1071 59.8021 36.1072C60.1279 36.1067 60.4424 35.9888 60.686 35.7757C60.9296 35.5626 61.0855 35.2691 61.1243 34.9506C61.2342 34.0413 61.3009 33.1275 61.3243 32.2122C61.3288 32.0399 61.2987 31.8683 61.2358 31.7075C61.1729 31.5466 61.0784 31.3995 60.9577 31.2746C60.837 31.1496 60.6925 31.0494 60.5324 30.9794C60.3724 30.9095 60.1999 30.8713 60.0248 30.867ZM55.9323 45.8797C55.6397 45.6845 55.2803 45.6115 54.9331 45.6767C54.5858 45.7419 54.2791 45.9401 54.0801 46.2277C53.6043 46.9168 53.0956 47.5834 52.5559 48.2252C52.4416 48.3576 52.3551 48.511 52.3015 48.6766C52.2479 48.8421 52.2282 49.0165 52.2436 49.1896C52.259 49.3627 52.3092 49.5311 52.3912 49.6849C52.4733 49.8388 52.5855 49.975 52.7215 50.0859C52.8574 50.1967 53.0144 50.2798 53.1833 50.3304C53.3521 50.381 53.5295 50.3981 53.7051 50.3807C53.8808 50.3633 54.0511 50.3117 54.2063 50.229C54.3615 50.1462 54.4985 50.0339 54.6093 49.8987C55.2031 49.1931 55.7625 48.4602 56.2857 47.7024C56.3841 47.5599 56.453 47.3997 56.4884 47.231C56.5239 47.0622 56.5253 46.8883 56.4925 46.719C56.4597 46.5498 56.3933 46.3885 56.2972 46.2445C56.2011 46.1005 56.0771 45.9766 55.9323 45.8797ZM57.7696 24.7285C57.9869 25.5332 58.1652 26.3475 58.3041 27.1689C58.3557 27.4753 58.5161 27.7537 58.7566 27.9547C58.9971 28.1557 59.3023 28.2663 59.6178 28.2667C59.6913 28.2665 59.7647 28.2605 59.8372 28.2487C60.0099 28.2205 60.1754 28.1591 60.324 28.0679C60.4727 27.9768 60.6016 27.8577 60.7035 27.7175C60.8053 27.5773 60.8781 27.4187 60.9177 27.2508C60.9573 27.0828 60.9629 26.9089 60.9342 26.7388C60.7818 25.8349 60.5858 24.9385 60.3467 24.053C60.2557 23.7166 60.0327 23.4296 59.7267 23.2551C59.4207 23.0805 59.0568 23.0328 58.7151 23.1224C58.3734 23.212 58.0818 23.4315 57.9046 23.7327C57.7273 24.0339 57.6788 24.3921 57.7698 24.7285H57.7696ZM48.9688 51.752C48.3169 52.2828 47.6397 52.7828 46.9396 53.2503C46.7946 53.347 46.6705 53.4709 46.5742 53.6148C46.4779 53.7588 46.4114 53.9199 46.3784 54.0892C46.3454 54.2584 46.3465 54.4324 46.3818 54.6012C46.4171 54.77 46.4859 54.9303 46.5841 55.073C46.6824 55.2156 46.8082 55.3378 46.9544 55.4326C47.1006 55.5274 47.2644 55.5929 47.4363 55.6254C47.6082 55.6579 47.785 55.6567 47.9564 55.622C48.1279 55.5872 48.2908 55.5196 48.4357 55.4229C49.2058 54.9088 49.9507 54.3592 50.6681 53.7759C50.9407 53.5541 51.1127 53.2347 51.1461 52.8881C51.1796 52.5415 51.0718 52.196 50.8464 51.9276C50.6211 51.6592 50.2967 51.4899 49.9446 51.457C49.5924 51.4241 49.2414 51.5302 48.9688 51.752ZM59.0736 38.6629C58.7367 38.5576 58.3711 38.5881 58.0571 38.7478C57.7431 38.9075 57.5063 39.1833 57.3986 39.5146C57.1412 40.3076 56.8455 41.088 56.5124 41.8531C56.4397 42.0121 56.3999 42.1837 56.3953 42.358C56.3907 42.5322 56.4214 42.7057 56.4856 42.8681C56.5499 43.0306 56.6464 43.1788 56.7694 43.3041C56.8925 43.4295 57.0397 43.5294 57.2025 43.5981C57.3652 43.6668 57.5403 43.7029 57.7174 43.7043C57.8945 43.7057 58.07 43.6723 58.2339 43.6062C58.3977 43.54 58.5465 43.4424 58.6716 43.319C58.7967 43.1956 58.8956 43.0489 58.9624 42.8875C59.3299 42.045 59.6555 41.1854 59.9383 40.3119C59.9916 40.1477 60.0115 39.9748 59.9969 39.8031C59.9823 39.6313 59.9334 39.4641 59.8531 39.311C59.7728 39.1578 59.6626 39.0218 59.5288 38.9106C59.3951 38.7994 59.2404 38.7152 59.0736 38.6629ZM42.4928 55.6394C41.7153 55.9668 40.9223 56.2574 40.1166 56.5103C39.9498 56.5627 39.7951 56.6469 39.6613 56.7581C39.5275 56.8693 39.4173 57.0053 39.337 57.1584C39.2567 57.3115 39.2077 57.4787 39.193 57.6505C39.1783 57.8222 39.1981 57.9951 39.2513 58.1593C39.3045 58.3235 39.39 58.4758 39.503 58.6074C39.6159 58.7391 39.7541 58.8476 39.9097 58.9267C40.0652 59.0057 40.2351 59.0539 40.4095 59.0684C40.584 59.0829 40.7596 59.0634 40.9264 59.011C41.8134 58.7329 42.6863 58.4132 43.5423 58.053C43.8674 57.9159 44.124 57.6573 44.2554 57.3341C44.3869 57.0109 44.3825 56.6495 44.2432 56.3294C44.104 56.0093 43.8413 55.7568 43.5129 55.6274C43.1846 55.498 42.8174 55.5023 42.4923 55.6394H42.4928Z" fill="#FFB22C"/>
<path d="M20.7253 28.8188C20.7253 26.6677 19.2885 24.9441 17.0646 24.4273C15.8429 24.1425 14.5592 24.2737 13.423 24.7995C12.2868 25.3254 11.3652 26.2149 10.8087 27.3227C10.6529 27.6338 10.6285 27.993 10.7408 28.3218C10.8532 28.6505 11.0932 28.9221 11.4084 29.0773C11.7235 29.2324 12.0883 29.2584 12.4229 29.1497C12.7575 29.0409 13.0347 28.8062 13.1941 28.4968C13.4788 27.9153 13.9576 27.4475 14.5506 27.1718C15.1436 26.8961 15.8147 26.8291 16.4518 26.9821C16.8288 27.0696 18.0586 27.4611 18.0586 28.8188C18.0586 30.1877 16.4525 31.2436 14.752 32.3616C12.8372 33.6196 10.668 35.0455 10.668 37.4065C10.668 37.7546 10.8084 38.0885 11.0585 38.3346C11.3086 38.5808 11.6477 38.719 12.0013 38.719H19.392C19.5681 38.7207 19.7429 38.688 19.9062 38.6228C20.0694 38.5576 20.218 38.4612 20.3431 38.3392C20.4683 38.2171 20.5677 38.0719 20.6355 37.9118C20.7033 37.7517 20.7383 37.58 20.7383 37.4066C20.7383 37.2331 20.7033 37.0614 20.6355 36.9014C20.5677 36.7413 20.4683 36.596 20.3431 36.474C20.218 36.3519 20.0694 36.2555 19.9062 36.1903C19.7429 36.1251 19.5681 36.0924 19.392 36.0941H14.1095C14.6681 35.5731 15.4577 35.054 16.2325 34.5444C18.3388 33.1602 20.7253 31.5913 20.7253 28.8188ZM33.3347 33.1409C33.3347 32.7928 33.1942 32.4589 32.9441 32.2128C32.6941 31.9667 32.355 31.8284 32.0013 31.8284H30.918V24.8557C30.9179 24.5839 30.8321 24.3188 30.6725 24.097C30.5128 23.8752 30.2872 23.7077 30.0266 23.6176C29.7661 23.5274 29.4836 23.5191 29.2181 23.5938C28.9526 23.6685 28.7171 23.8225 28.5443 24.0345L21.7943 32.32C21.6373 32.513 21.5389 32.7458 21.5103 32.9915C21.4818 33.2372 21.5243 33.4858 21.633 33.7087C21.7418 33.9317 21.9122 34.1198 22.1248 34.2516C22.3374 34.3833 22.5835 34.4533 22.8347 34.4534H28.2513V38.1448C28.2496 38.3182 28.2829 38.4903 28.3491 38.651C28.4153 38.8117 28.5133 38.9579 28.6373 39.0811C28.7612 39.2043 28.9088 39.3022 29.0714 39.3689C29.234 39.4357 29.4085 39.47 29.5847 39.47C29.7608 39.47 29.9353 39.4357 30.0979 39.3689C30.2605 39.3022 30.4081 39.2043 30.532 39.0811C30.656 38.9579 30.754 38.8117 30.8202 38.651C30.8864 38.4903 30.9197 38.3182 30.918 38.1448V34.4534H32.0013C32.355 34.4534 32.6941 34.3151 32.9442 34.069C33.1942 33.8228 33.3347 33.489 33.3347 33.1409ZM28.2513 31.8284H25.6138L28.2513 28.5901V31.8284ZM40.1588 22.8306C39.9871 22.7965 39.8102 22.796 39.6383 22.8293C39.4664 22.8626 39.3029 22.929 39.1571 23.0247C39.0114 23.1203 38.8862 23.2434 38.7889 23.3867C38.6915 23.5301 38.6239 23.691 38.5898 23.8602L35.5898 38.6258C35.5204 38.9671 35.5916 39.3215 35.7877 39.6112C35.9838 39.9008 36.2887 40.1019 36.6355 40.1703C36.7219 40.1872 36.8098 40.1958 36.898 40.1959C37.2059 40.1955 37.5043 40.0903 37.7423 39.898C37.9804 39.7057 38.1435 39.4382 38.204 39.141L41.204 24.3754C41.2384 24.2064 41.2388 24.0324 41.2049 23.8633C41.171 23.6942 41.1036 23.5333 41.0066 23.3898C40.9095 23.2464 40.7847 23.1232 40.6392 23.0272C40.4938 22.9313 40.3305 22.8645 40.1588 22.8306ZM47.0007 38.7197C47.264 38.7195 47.5214 38.6427 47.7405 38.4989C47.9595 38.3551 48.1305 38.1507 48.2318 37.9115L53.2318 26.099C53.3164 25.8996 53.3496 25.6827 53.3285 25.4676C53.3074 25.2524 53.2327 25.0458 53.1109 24.866C52.9892 24.6861 52.8242 24.5387 52.6306 24.4367C52.437 24.3348 52.2209 24.2814 52.0013 24.2815H45.2513C44.9 24.2848 44.5641 24.4246 44.3169 24.6704C44.0696 24.9161 43.9309 25.2481 43.9309 25.594C43.9309 25.9399 44.0696 26.2718 44.3169 26.5176C44.5641 26.7633 44.9 26.9031 45.2513 26.9064H50.0013L45.7708 36.902C45.6867 37.1015 45.6538 37.3182 45.675 37.5332C45.6963 37.7481 45.771 37.9546 45.8926 38.1344C46.0142 38.3141 46.1789 38.4616 46.3722 38.5638C46.5654 38.666 46.7813 38.7197 47.0007 38.7202V38.7197Z" fill="#FFB22C"/>
</svg>
