<svg width="56" height="57" viewBox="0 0 56 57" fill="none" xmlns="http://www.w3.org/2000/svg">
<g clip-path="url(#clip0_229_2299)">
<path d="M27.0559 20.2253C27.4206 20.5664 28.0273 20.4974 28.3046 20.0856L33.7644 11.9745C33.8239 11.8861 33.8652 11.787 33.8858 11.6829C33.9064 11.5787 33.906 11.4716 33.8846 11.3677C33.8631 11.2637 33.8211 11.1649 33.7609 11.0769C33.7007 10.989 33.6234 10.9135 33.5336 10.8549C33.1565 10.6089 32.6471 10.7106 32.3968 11.0821L27.4766 18.3915L24.7427 15.8362C24.5848 15.6887 24.374 15.609 24.1564 15.6146C23.9389 15.6202 23.7325 15.7106 23.5827 15.866C23.5085 15.9429 23.4505 16.0335 23.4119 16.1324C23.3733 16.2314 23.3549 16.3369 23.3577 16.4429C23.3605 16.5489 23.3845 16.6533 23.4284 16.7502C23.4722 16.8471 23.5349 16.9345 23.6131 17.0075C23.6126 17.0075 27.0528 20.2227 27.0558 20.2253H27.0559Z" fill="#FFB22C"/>
<path d="M27.6148 32.542C27.7726 32.6129 27.944 32.6498 28.1176 32.6501H28.1245C28.3005 32.6492 28.4742 32.6101 28.6333 32.5357C41.1072 26.696 43.2212 14.0967 43.5715 10.3742C43.6519 9.5242 43.1657 8.73274 42.362 8.40469C39.8788 7.38983 38.1908 5.12045 37.9566 2.4822C37.8844 1.67008 37.1795 1.03711 36.3489 1.03711H36.3391L19.5338 1.13422C18.6866 1.13885 17.9982 1.77268 17.9333 2.60839C17.7266 5.24738 16.0632 7.53324 13.5925 8.57372C12.797 8.90856 12.3227 9.70421 12.4134 10.5537C12.8081 14.272 15.0721 26.8467 27.6148 32.542ZM14.2377 10.0584C17.2673 8.78324 19.3083 5.9835 19.5675 2.749L36.3246 2.6521C36.6224 5.8796 38.6925 8.65361 41.7332 9.89597C41.8691 9.95195 41.9515 10.084 41.9383 10.2253C41.6093 13.7139 39.641 25.4768 28.1147 30.9892C16.5223 25.611 14.4155 13.8708 14.0447 10.386C14.037 10.3182 14.0515 10.2498 14.0863 10.1908C14.1211 10.1318 14.1742 10.0853 14.2378 10.0583L14.2377 10.0584Z" fill="#FFB22C"/>
<path d="M16.2861 14.5351C16.3853 14.8943 16.8479 15.2231 17.2931 15.1025C17.7298 14.9839 17.9883 14.5419 17.8695 14.1117C17.6613 13.3571 17.487 12.5939 17.347 11.8242C19.573 10.3979 21.2309 8.2592 22.0407 5.76917L33.8874 5.7007C34.7268 8.18115 36.41 10.3005 38.6528 11.7009C38.5224 12.4728 38.357 13.2385 38.1574 13.9959C38.1028 14.2033 38.1341 14.4235 38.2445 14.6081C38.3549 14.7927 38.5352 14.9265 38.7459 14.9803C38.9565 15.034 39.1802 15.0031 39.3677 14.8945C39.5552 14.7858 39.6912 14.6083 39.7458 14.401C39.9799 13.5123 40.1695 12.6129 40.314 11.706C40.3535 11.463 40.3183 11.2139 40.2129 10.9907C40.1076 10.7676 39.9369 10.5805 39.7227 10.4535C37.6334 9.21301 36.083 7.25675 35.3691 4.96006C35.208 4.44316 34.7128 4.08398 34.1634 4.08398H34.1558L21.7526 4.15547C21.1999 4.15881 20.7052 4.5252 20.5501 5.04587C19.8621 7.35261 18.339 9.32128 16.2622 10.5894C15.8269 10.8548 15.6008 11.3488 15.6858 11.8485C15.8413 12.7532 16.0416 13.6498 16.2861 14.5351ZM38.0877 16.9294C37.6689 16.7587 37.1896 16.9555 37.0166 17.3676C35.1209 21.8905 32.1199 25.329 28.0943 27.5922C24.0376 25.3728 20.9931 21.9632 19.044 17.4547C18.9586 17.2578 18.7972 17.1023 18.5955 17.0223C18.3937 16.9424 18.1679 16.9446 17.9677 17.0283C17.8686 17.0698 17.7788 17.1301 17.7034 17.2058C17.628 17.2815 17.5684 17.3711 17.5282 17.4694C17.4879 17.5677 17.4677 17.6729 17.4687 17.7789C17.4698 17.8849 17.492 17.9897 17.5342 18.0872C19.6614 23.0071 23.0128 26.7161 27.4949 29.1104C27.6817 29.2109 27.8914 29.263 28.1042 29.2618C28.3171 29.2607 28.5261 29.2062 28.7117 29.1037C33.1602 26.6606 36.4646 22.9192 38.5333 17.9834C38.5744 17.8854 38.5956 17.7804 38.5954 17.6744C38.5953 17.5683 38.5739 17.4633 38.5326 17.3654C38.4912 17.2675 38.4306 17.1786 38.3542 17.1038C38.2779 17.029 38.1873 16.9697 38.0877 16.9294ZM5.26359 42.3566C3.66355 42.3566 2.36133 43.6382 2.36133 45.2136C2.36133 46.789 3.66355 48.0706 5.26359 48.0706C6.86408 48.0706 8.16641 46.789 8.16641 45.2136C8.16641 43.6382 6.86452 42.3566 5.26359 42.3566ZM5.26359 46.4555C4.56797 46.4555 4.00195 45.8987 4.00195 45.2136C4.00195 44.5289 4.56808 43.9716 5.26359 43.9716C5.95955 43.9716 6.52578 44.5289 6.52578 45.2136C6.52578 45.8987 5.95955 46.4556 5.26359 46.4556V46.4555Z" fill="#FFB22C"/>
<path d="M55.4117 34.451C54.3602 32.9303 52.2432 32.5273 50.6928 33.5527L39.9689 40.6178L37.6797 40.4912L37.6212 39.9141C37.5126 38.8187 37.0327 37.7912 36.2587 36.997C35.4846 36.2028 34.4616 35.6882 33.3542 35.5361C33.3399 35.534 33.3256 35.5323 33.3111 35.531L21.7558 34.5342C21.3649 34.4741 20.1135 34.1203 16.675 32.179C14.8878 31.17 12.8742 30.6006 10.8286 30.5232V28.4108C10.8286 27.3504 9.95269 26.4883 8.87556 26.4883H1.95289C0.876312 26.4883 0 27.3509 0 28.4108V49.2168C0 50.2766 0.876312 51.1392 1.95289 51.1392H8.87556C9.95225 51.1392 10.8286 50.2766 10.8286 49.2168V48.6436L20.9295 52.4089C20.9518 52.4173 21.7721 52.7192 23.2803 52.5793C23.2845 52.5788 40.0637 50.1976 40.0637 50.1976C40.068 50.1972 40.0718 50.1963 40.0761 50.1954C41.5113 49.9696 42.8605 49.3746 43.9871 48.4706C43.9974 48.4622 44.0073 48.4538 44.017 48.4454L54.8567 38.8484C56.1342 37.7319 56.373 35.8413 55.4117 34.451ZM53.7634 37.6444L42.9353 47.2313C42.0373 47.9474 40.9643 48.4192 39.8232 48.5997L23.0521 50.9798C23.0472 50.9804 23.0424 50.9811 23.0375 50.9819L23.0295 50.9831C22.5279 51.061 22.0053 51.0281 21.476 50.8856L10.8286 46.9168V37.695C10.8286 37.4808 10.7421 37.2755 10.5883 37.124C10.4345 36.9726 10.2258 36.8875 10.0082 36.8875C9.90051 36.8875 9.79382 36.9083 9.69428 36.9489C9.59473 36.9895 9.50429 37.0489 9.42811 37.1239C9.35192 37.1989 9.2915 37.288 9.25029 37.3859C9.20908 37.4839 9.18789 37.589 9.18794 37.695V49.2169C9.18782 49.2984 9.15487 49.3765 9.09632 49.4342C9.03776 49.4918 8.95837 49.5243 8.87556 49.5244H1.95289C1.87008 49.5242 1.7907 49.4918 1.73217 49.4341C1.67363 49.3764 1.64071 49.2983 1.64062 49.2168V28.4108C1.64077 28.3293 1.67372 28.2512 1.73225 28.1936C1.79078 28.136 1.87012 28.1035 1.95289 28.1034H8.87556C8.95835 28.1035 9.03773 28.1359 9.09628 28.1935C9.15483 28.2511 9.18779 28.3293 9.18794 28.4108V34.0473C9.18794 34.2614 9.27436 34.4668 9.4282 34.6183C9.58204 34.7697 9.79069 34.8548 10.0082 34.8548C10.2258 34.8548 10.4345 34.7697 10.5883 34.6183C10.7421 34.4668 10.8286 34.2614 10.8286 34.0473V32.14C12.5884 32.2164 14.3196 32.711 15.8585 33.5804C20.0058 35.9218 21.1641 36.0832 21.5447 36.1362C21.5592 36.1384 21.5733 36.1396 21.5879 36.1413L33.1445 37.1381C33.8837 37.2442 34.5654 37.591 35.0809 38.1232C35.5965 38.6554 35.916 39.3422 35.9886 40.0741L36.0323 40.5042L20.5603 41.4447C20.3085 41.4273 20.0628 41.3598 19.8382 41.2464C19.6136 41.133 19.4146 40.976 19.2533 40.7848C19.1843 40.7033 19.0998 40.636 19.0044 40.5867C18.909 40.5375 18.8047 40.5072 18.6974 40.4976C18.5901 40.488 18.482 40.4994 18.3792 40.531C18.2764 40.5626 18.1809 40.6138 18.0982 40.6818C18.0154 40.7496 17.947 40.8329 17.8969 40.9268C17.8469 41.0207 17.8161 41.1234 17.8064 41.229C17.7966 41.3346 17.8082 41.4411 17.8403 41.5423C17.8724 41.6435 17.9244 41.7375 17.9935 41.8189C18.5955 42.5297 19.4449 42.9549 20.3835 43.0508C20.8902 43.103 36.9346 42.0675 36.9346 42.0675L40.1509 42.2454C40.3288 42.2553 40.505 42.2077 40.6529 42.11L51.6066 34.8939C52.4112 34.3619 53.5095 34.5704 54.0552 35.3594C54.5537 36.0811 54.4299 37.0619 53.7634 37.6444Z" fill="#FFB22C"/>
</g>
<defs>
<clipPath id="clip0_229_2299">
<rect width="56" height="55.1249" fill="white" transform="translate(0 0.929688)"/>
</clipPath>
</defs>
</svg>
