<svg width="56" height="57" viewBox="0 0 56 57" fill="none" xmlns="http://www.w3.org/2000/svg">
<g clip-path="url(#clip0_156_860)">
<path d="M27.0559 20.2263C27.4206 20.5674 28.0273 20.4983 28.3046 20.0866L33.7644 11.9755C33.8239 11.8871 33.8652 11.788 33.8858 11.6838C33.9064 11.5797 33.906 11.4726 33.8846 11.3686C33.8631 11.2647 33.8211 11.1659 33.7609 11.0779C33.7007 10.9899 33.6234 10.9145 33.5336 10.8559C33.1565 10.6099 32.6471 10.7116 32.3968 11.0831L27.4766 18.3925L24.7427 15.8372C24.5848 15.6897 24.374 15.61 24.1564 15.6156C23.9389 15.6212 23.7325 15.7116 23.5827 15.867C23.5085 15.9439 23.4505 16.0344 23.4119 16.1334C23.3733 16.2324 23.3549 16.3379 23.3577 16.4439C23.3605 16.5499 23.3845 16.6543 23.4284 16.7512C23.4722 16.8481 23.5349 16.9355 23.6131 17.0085C23.6126 17.0085 27.0528 20.2237 27.0558 20.2263H27.0559Z" fill="#80B501"/>
<path d="M27.6148 32.5425C27.7726 32.6134 27.944 32.6503 28.1176 32.6506H28.1245C28.3005 32.6496 28.4742 32.6106 28.6333 32.5362C41.1072 26.6965 43.2212 14.0971 43.5715 10.3747C43.6519 9.52468 43.1657 8.73323 42.362 8.40517C39.8788 7.39032 38.1908 5.12093 37.9566 2.48269C37.8844 1.67057 37.1795 1.0376 36.3489 1.0376H36.3391L19.5338 1.13471C18.6866 1.13934 17.9982 1.77317 17.9333 2.60887C17.7266 5.24787 16.0632 7.53373 13.5925 8.57421C12.797 8.90905 12.3227 9.7047 12.4134 10.5542C12.8081 14.2725 15.0721 26.8472 27.6148 32.5425ZM14.2377 10.0589C17.2673 8.78373 19.3083 5.98398 19.5675 2.74949L36.3246 2.65259C36.6224 5.88009 38.6925 8.6541 41.7332 9.89645C41.8691 9.95244 41.9515 10.0844 41.9383 10.2258C41.6093 13.7144 39.641 25.4773 28.1147 30.9897C16.5223 25.6115 14.4155 13.8713 14.0447 10.3864C14.037 10.3187 14.0515 10.2502 14.0863 10.1913C14.1211 10.1323 14.1742 10.0858 14.2378 10.0588L14.2377 10.0589Z" fill="#80B501"/>
<path d="M16.2861 14.5351C16.3853 14.8943 16.8479 15.2231 17.2931 15.1025C17.7298 14.9839 17.9883 14.5419 17.8695 14.1117C17.6613 13.3571 17.487 12.5939 17.347 11.8242C19.573 10.3979 21.2309 8.2592 22.0407 5.76917L33.8874 5.7007C34.7268 8.18115 36.41 10.3005 38.6528 11.7009C38.5224 12.4728 38.357 13.2385 38.1574 13.9959C38.1028 14.2033 38.1341 14.4235 38.2445 14.6081C38.3549 14.7927 38.5352 14.9265 38.7459 14.9803C38.9565 15.034 39.1802 15.0031 39.3677 14.8945C39.5552 14.7858 39.6912 14.6083 39.7458 14.401C39.9799 13.5123 40.1695 12.6129 40.314 11.706C40.3535 11.463 40.3183 11.2139 40.2129 10.9907C40.1076 10.7676 39.9369 10.5805 39.7227 10.4535C37.6334 9.21301 36.083 7.25675 35.3691 4.96006C35.208 4.44316 34.7128 4.08398 34.1634 4.08398H34.1558L21.7526 4.15547C21.1999 4.15881 20.7052 4.5252 20.5501 5.04587C19.8621 7.35261 18.339 9.32128 16.2622 10.5894C15.8269 10.8548 15.6008 11.3488 15.6858 11.8485C15.8413 12.7532 16.0416 13.6498 16.2861 14.5351ZM38.0877 16.9294C37.6689 16.7587 37.1896 16.9555 37.0166 17.3676C35.1209 21.8905 32.1199 25.329 28.0943 27.5922C24.0376 25.3728 20.9931 21.9632 19.044 17.4547C18.9586 17.2578 18.7972 17.1023 18.5955 17.0223C18.3937 16.9424 18.1679 16.9446 17.9677 17.0283C17.8686 17.0698 17.7788 17.1301 17.7034 17.2058C17.628 17.2815 17.5684 17.3711 17.5282 17.4694C17.4879 17.5677 17.4677 17.6729 17.4687 17.7789C17.4698 17.8849 17.492 17.9897 17.5342 18.0872C19.6614 23.0071 23.0128 26.7161 27.4949 29.1104C27.6817 29.2109 27.8914 29.263 28.1042 29.2618C28.3171 29.2607 28.5261 29.2062 28.7117 29.1037C33.1602 26.6606 36.4646 22.9192 38.5333 17.9834C38.5744 17.8854 38.5956 17.7804 38.5954 17.6744C38.5953 17.5683 38.5739 17.4633 38.5326 17.3654C38.4912 17.2675 38.4306 17.1786 38.3542 17.1038C38.2779 17.029 38.1873 16.9697 38.0877 16.9294ZM5.26359 42.3566C3.66355 42.3566 2.36133 43.6382 2.36133 45.2136C2.36133 46.789 3.66355 48.0706 5.26359 48.0706C6.86408 48.0706 8.16641 46.789 8.16641 45.2136C8.16641 43.6382 6.86452 42.3566 5.26359 42.3566ZM5.26359 46.4555C4.56797 46.4555 4.00195 45.8987 4.00195 45.2136C4.00195 44.5289 4.56808 43.9716 5.26359 43.9716C5.95955 43.9716 6.52578 44.5289 6.52578 45.2136C6.52578 45.8987 5.95955 46.4556 5.26359 46.4556V46.4555Z" fill="#80B501"/>
<path d="M55.4117 34.4515C54.3602 32.9307 52.2432 32.5277 50.6928 33.5532L39.9689 40.6183L37.6797 40.4917L37.6212 39.9146C37.5126 38.8192 37.0327 37.7917 36.2587 36.9975C35.4846 36.2033 34.4616 35.6887 33.3542 35.5366C33.3399 35.5345 33.3256 35.5328 33.3111 35.5315L21.7558 34.5346C21.3649 34.4746 20.1135 34.1208 16.675 32.1794C14.8878 31.1705 12.8742 30.6011 10.8286 30.5237V28.4113C10.8286 27.3509 9.95269 26.4888 8.87556 26.4888H1.95289C0.876312 26.4888 0 27.3514 0 28.4113V49.2173C0 50.2771 0.876312 51.1397 1.95289 51.1397H8.87556C9.95225 51.1397 10.8286 50.2771 10.8286 49.2173V48.644L20.9295 52.4094C20.9518 52.4178 21.7721 52.7197 23.2803 52.5798C23.2845 52.5793 40.0637 50.1981 40.0637 50.1981C40.068 50.1977 40.0718 50.1968 40.0761 50.1959C41.5113 49.9701 42.8605 49.3751 43.9871 48.4711C43.9974 48.4627 44.0073 48.4543 44.017 48.4459L54.8567 38.8489C56.1342 37.7324 56.373 35.8418 55.4117 34.4515ZM53.7634 37.6449L42.9353 47.2318C42.0373 47.9479 40.9643 48.4197 39.8232 48.6002L23.0521 50.9803C23.0472 50.9809 23.0424 50.9816 23.0375 50.9824L23.0295 50.9836C22.5279 51.0615 22.0053 51.0286 21.476 50.8861L10.8286 46.9173V37.6955C10.8286 37.4813 10.7421 37.2759 10.5883 37.1245C10.4345 36.9731 10.2258 36.888 10.0082 36.888C9.90051 36.888 9.79382 36.9088 9.69428 36.9494C9.59473 36.9899 9.50429 37.0494 9.42811 37.1244C9.35192 37.1994 9.2915 37.2884 9.25029 37.3864C9.20908 37.4844 9.18789 37.5894 9.18794 37.6955V49.2174C9.18782 49.2989 9.15487 49.377 9.09632 49.4347C9.03776 49.4923 8.95837 49.5247 8.87556 49.5249H1.95289C1.87008 49.5247 1.7907 49.4923 1.73217 49.4346C1.67363 49.3769 1.64071 49.2988 1.64062 49.2173V28.4113C1.64077 28.3298 1.67372 28.2517 1.73225 28.1941C1.79078 28.1364 1.87012 28.104 1.95289 28.1039H8.87556C8.95835 28.104 9.03773 28.1364 9.09628 28.194C9.15483 28.2516 9.18779 28.3298 9.18794 28.4113V34.0478C9.18794 34.2619 9.27436 34.4673 9.4282 34.6188C9.58204 34.7702 9.79069 34.8553 10.0082 34.8553C10.2258 34.8553 10.4345 34.7702 10.5883 34.6188C10.7421 34.4673 10.8286 34.2619 10.8286 34.0478V32.1405C12.5884 32.2169 14.3196 32.7115 15.8585 33.5809C20.0058 35.9222 21.1641 36.0837 21.5447 36.1367C21.5592 36.1389 21.5733 36.14 21.5879 36.1418L33.1445 37.1385C33.8837 37.2447 34.5654 37.5915 35.0809 38.1237C35.5965 38.6559 35.916 39.3427 35.9886 40.0746L36.0323 40.5047L20.5603 41.4452C20.3085 41.4277 20.0628 41.3603 19.8382 41.2469C19.6136 41.1335 19.4146 40.9764 19.2533 40.7853C19.1843 40.7038 19.0998 40.6365 19.0044 40.5872C18.909 40.5379 18.8047 40.5077 18.6974 40.4981C18.5901 40.4885 18.482 40.4999 18.3792 40.5315C18.2764 40.5631 18.1809 40.6143 18.0982 40.6823C18.0154 40.7501 17.947 40.8334 17.8969 40.9273C17.8469 41.0212 17.8161 41.1239 17.8064 41.2295C17.7966 41.3351 17.8082 41.4416 17.8403 41.5428C17.8724 41.644 17.9244 41.738 17.9935 41.8194C18.5955 42.5302 19.4449 42.9554 20.3835 43.0513C20.8902 43.1034 36.9346 42.068 36.9346 42.068L40.1509 42.2459C40.3288 42.2558 40.505 42.2082 40.6529 42.1104L51.6066 34.8944C52.4112 34.3624 53.5095 34.5709 54.0552 35.3599C54.5537 36.0816 54.4299 37.0624 53.7634 37.6449Z" fill="#80B501"/>
</g>
<defs>
<clipPath id="clip0_156_860">
<rect width="56" height="55.1249" fill="white" transform="translate(0 0.929688)"/>
</clipPath>
</defs>
</svg>
