<svg width="80" height="63" viewBox="0 0 80 63" fill="none" xmlns="http://www.w3.org/2000/svg">
<g clip-path="url(#clip0_156_886)">
<path d="M21.6673 48.2343H15.0007C14.5586 48.2343 14.1347 48.0615 13.8221 47.7538C13.5096 47.4461 13.334 47.0288 13.334 46.5937C13.334 46.1586 13.5096 45.7413 13.8221 45.4336C14.1347 45.1259 14.5586 44.9531 15.0007 44.9531H21.6673C22.1093 44.9531 22.5333 45.1259 22.8458 45.4336C23.1584 45.7413 23.334 46.1586 23.334 46.5937C23.334 47.0288 23.1584 47.4461 22.8458 47.7538C22.5333 48.0615 22.1093 48.2343 21.6673 48.2343ZM75.834 48.2343H71.6673C71.2253 48.2343 70.8014 48.0615 70.4888 47.7538C70.1762 47.4461 70.0007 47.0288 70.0007 46.5937C70.0007 46.1586 70.1762 45.7413 70.4888 45.4336C70.8014 45.1259 71.2253 44.9531 71.6673 44.9531H74.4506L76.6973 33.1669C76.6673 27.1359 71.434 21.9844 65.0007 21.9844H54.0573L48.754 44.9531H58.334C58.776 44.9531 59.1999 45.1259 59.5125 45.4336C59.8251 45.7413 60.0007 46.1586 60.0007 46.5937C60.0007 47.0288 59.8251 47.4461 59.5125 47.7538C59.1999 48.0615 58.776 48.2343 58.334 48.2343H46.6673C46.4172 48.2345 46.1703 48.1792 45.9449 48.0726C45.7194 47.966 45.5213 47.8108 45.365 47.6186C45.2088 47.4264 45.0985 47.202 45.0424 46.9621C44.9862 46.7222 44.9856 46.4729 45.0407 46.2328L51.1007 19.9828C51.1839 19.6194 51.3903 19.2947 51.686 19.0621C51.9816 18.8295 52.3489 18.7029 52.7273 18.7031H65.0007C73.2707 18.7031 80.0007 25.328 80.0007 33.4687L77.4706 46.8956C77.3998 47.2718 77.1972 47.6117 76.8983 47.8563C76.5993 48.1009 76.2227 48.2346 75.834 48.2343Z" fill="#80B501"/>
<path d="M65 54.7968C60.4067 54.7968 56.6667 51.1185 56.6667 46.5937C56.6667 42.0689 60.4067 38.3906 65 38.3906C69.5933 38.3906 73.3333 42.0689 73.3333 46.5937C73.3333 51.1185 69.5933 54.7968 65 54.7968ZM65 41.6718C62.2433 41.6718 60 43.8801 60 46.5937C60 49.3073 62.2433 51.5156 65 51.5156C67.7567 51.5156 70 49.3073 70 46.5937C70 43.8801 67.7567 41.6718 65 41.6718ZM28.3333 54.7968C23.74 54.7968 20 51.1185 20 46.5937C20 42.0689 23.74 38.3906 28.3333 38.3906C32.9267 38.3906 36.6667 42.0689 36.6667 46.5937C36.6667 51.1185 32.9267 54.7968 28.3333 54.7968ZM28.3333 41.6718C25.5767 41.6718 23.3333 43.8801 23.3333 46.5937C23.3333 49.3073 25.5767 51.5156 28.3333 51.5156C31.09 51.5156 33.3333 49.3073 33.3333 46.5937C33.3333 43.8801 31.09 41.6718 28.3333 41.6718ZM21.6667 18.7031H8.33333C7.89131 18.7031 7.46738 18.5303 7.15482 18.2226C6.84226 17.9149 6.66667 17.4976 6.66667 17.0625C6.66667 16.6274 6.84226 16.2101 7.15482 15.9024C7.46738 15.5947 7.89131 15.4219 8.33333 15.4219H21.6667C22.1087 15.4219 22.5326 15.5947 22.8452 15.9024C23.1577 16.2101 23.3333 16.6274 23.3333 17.0625C23.3333 17.4976 23.1577 17.9149 22.8452 18.2226C22.5326 18.5303 22.1087 18.7031 21.6667 18.7031ZM21.6667 28.5469H5C4.55797 28.5469 4.13405 28.374 3.82149 28.0663C3.50893 27.7587 3.33333 27.3414 3.33333 26.9062C3.33333 26.4711 3.50893 26.0538 3.82149 25.7461C4.13405 25.4385 4.55797 25.2656 5 25.2656H21.6667C22.1087 25.2656 22.5326 25.4385 22.8452 25.7461C23.1577 26.0538 23.3333 26.4711 23.3333 26.9062C23.3333 27.3414 23.1577 27.7587 22.8452 28.0663C22.5326 28.374 22.1087 28.5469 21.6667 28.5469ZM21.6667 38.3906H1.66667C1.22464 38.3906 0.800716 38.2177 0.488155 37.9101C0.175595 37.6024 0 37.1851 0 36.75C0 36.3148 0.175595 35.8976 0.488155 35.5899C0.800716 35.2822 1.22464 35.1093 1.66667 35.1093H21.6667C22.1087 35.1093 22.5326 35.2822 22.8452 35.5899C23.1577 35.8976 23.3333 36.3148 23.3333 36.75C23.3333 37.1851 23.1577 37.6024 22.8452 37.9101C22.5326 38.2177 22.1087 38.3906 21.6667 38.3906Z" fill="#80B501"/>
<path d="M46.6673 48.2343H35.0007C34.5586 48.2343 34.1347 48.0615 33.8221 47.7538C33.5096 47.4461 33.334 47.0288 33.334 46.5937C33.334 46.1586 33.5096 45.7413 33.8221 45.4336C34.1347 45.1259 34.5586 44.9531 35.0007 44.9531H45.3373L52.9107 12.1406H15.0007C14.5586 12.1406 14.1347 11.9678 13.8221 11.6601C13.5096 11.3524 13.334 10.9351 13.334 10.5C13.334 10.0649 13.5096 9.64758 13.8221 9.3399C14.1347 9.03223 14.5586 8.85938 15.0007 8.85938H55.0007C55.2507 8.85925 55.4977 8.91453 55.7231 9.02112C55.9485 9.12771 56.1467 9.28287 56.3029 9.47511C56.4592 9.66735 56.5694 9.89173 56.6256 10.1316C56.6818 10.3715 56.6823 10.6208 56.6273 10.8609L48.294 46.9546C48.2107 47.318 48.0043 47.6427 47.7087 47.8753C47.413 48.1079 47.0458 48.2345 46.6673 48.2343Z" fill="#80B501"/>
</g>
<defs>
<clipPath id="clip0_156_886">
<rect width="80" height="62.9999" fill="white"/>
</clipPath>
</defs>
</svg>
