<svg width="60" height="61" viewBox="0 0 60 61" fill="none" xmlns="http://www.w3.org/2000/svg">
<g clip-path="url(#clip0_156_870)">
<path d="M58.9337 12.1402C58.1563 11.2355 57.0676 10.683 55.868 10.5844L13.6154 7.11145C12.4156 7.01282 11.2491 7.38 10.33 8.14515C9.41469 8.90731 8.85419 9.97354 8.75083 11.1487L7.90075 18.9993H4.50643C2.02159 18.9993 0 20.9893 0 23.4353V49.4714C0 51.9174 2.02159 53.9074 4.50643 53.9074H46.9062C49.3912 53.9074 51.4128 51.9174 51.4128 49.4714V45.2479L52.9173 45.3715C53.0443 45.3819 53.1705 45.3871 53.2956 45.3871C55.6122 45.3871 57.587 43.6326 57.7832 41.32L59.9841 15.3743C60.0841 14.1934 59.7111 13.0449 58.9337 12.1402ZM4.50643 21.3064H46.9062C48.0987 21.3064 49.069 22.2615 49.069 23.4353V25.8077H2.34374V23.4353C2.34374 22.2615 3.31393 21.3064 4.50643 21.3064ZM2.34374 28.1149H49.069V32.9009H2.34374V28.1149ZM46.9062 51.6003H4.50643C3.31393 51.6003 2.34374 50.6452 2.34374 49.4714V35.208H49.069V49.4714C49.069 50.6452 48.0987 51.6003 46.9062 51.6003ZM57.6484 15.1822L55.4475 41.1279C55.3483 42.2978 54.3005 43.1704 53.1123 43.0724L51.4128 42.9327V23.4353C51.4128 20.9893 49.3912 18.9993 46.9062 18.9993H10.2579L11.0827 11.3812C11.0837 11.3725 11.0845 11.3638 11.0852 11.3549C11.1845 10.1851 12.2316 9.31255 13.4204 9.4106L55.6731 12.8835C56.2489 12.9308 56.7714 13.196 57.1444 13.6302C57.5174 14.0644 57.6965 14.6155 57.6484 15.1822Z" fill="#80B501"/>
<path d="M44.1651 38.6377H32.8867C32.2395 38.6377 31.7148 39.1541 31.7148 39.7913V47.0344C31.7148 47.6715 32.2395 48.1879 32.8867 48.1879H44.1651C44.8123 48.1879 45.337 47.6715 45.337 47.0344V39.7913C45.337 39.1541 44.8123 38.6377 44.1651 38.6377ZM42.9932 45.8808H34.0586V40.9448H42.9932V45.8808Z" fill="#80B501"/>
</g>
<defs>
<clipPath id="clip0_156_870">
<rect width="60" height="59.0624" fill="white" transform="translate(0 0.970215)"/>
</clipPath>
</defs>
</svg>
