<svg width="40" height="40" viewBox="0 0 40 40" fill="none" xmlns="http://www.w3.org/2000/svg">
<path d="M14.1753 5.73782C14.052 5.63965 13.8948 5.59445 13.7383 5.61217C13.5817 5.62988 13.4386 5.70905 13.3404 5.83227L12.731 6.5972C12.6345 6.72059 12.5907 6.87707 12.6091 7.03259C12.6274 7.18812 12.7064 7.33012 12.8289 7.42772C12.9513 7.52531 13.1074 7.5706 13.2631 7.55373C13.4188 7.53687 13.5615 7.45922 13.6603 7.33766L14.2697 6.57274C14.3679 6.44948 14.4131 6.29229 14.3954 6.13573C14.3776 5.97916 14.2985 5.83604 14.1753 5.73782ZM12.5113 7.82642C12.388 7.72829 12.2309 7.68311 12.0743 7.70083C11.9178 7.71854 11.7747 7.79768 11.6764 7.92087L10.0126 10.0093C9.94302 10.0967 9.89948 10.202 9.88701 10.3131C9.87454 10.4241 9.89364 10.5364 9.94211 10.6371C9.99059 10.7378 10.0665 10.8228 10.1611 10.8823C10.2556 10.9418 10.3651 10.9735 10.4768 10.9736C10.6515 10.9736 10.8245 10.897 10.9418 10.7498L12.6057 8.66134C12.7038 8.5381 12.7491 8.38091 12.7314 8.22433C12.7137 8.06776 12.6345 7.92463 12.5113 7.82642Z" fill="#80B501"/>
<path d="M34.7365 11.854L34.7353 11.8519L29.729 3.88555C29.5935 3.67 29.4201 3.50273 29.2233 3.39117V1.78547C29.2233 0.800937 28.2454 0 27.0434 0H15.1092C13.9072 0 12.9294 0.800937 12.9294 1.78547V3.32641C12.5249 3.43289 12.0287 3.65758 11.6594 4.12922L5.32639 12.0779C5.31701 12.089 5.30834 12.1005 5.29936 12.1118C5.10131 12.3617 4.98201 12.6768 4.98201 13.0197V25.476C4.98201 25.8041 5.24795 26.0701 5.57607 26.0701C5.9042 26.0701 6.17014 25.8041 6.17014 25.476V19.9248H22.2424C22.242 22.4562 22.2417 25.3526 22.2415 28.087H6.17014V27.6938C6.17014 27.3657 5.9042 27.0998 5.57607 27.0998C5.24795 27.0998 4.98201 27.3657 4.98201 27.6938V29.4762C4.98201 29.8043 5.24795 30.0702 5.57607 30.0702C5.9042 30.0702 6.17014 29.8043 6.17014 29.4762V29.2751H22.2412L22.2404 38.3229C22.2404 38.4938 22.2611 38.6577 22.2985 38.812H6.44732C6.29709 38.812 6.17006 38.6851 6.17006 38.5348V31.4173C6.17006 31.0891 5.90412 30.8232 5.576 30.8232C5.24787 30.8232 4.98193 31.0891 4.98193 31.4173V38.5347C4.98193 39.3427 5.63928 40 6.44725 40H33.6354C34.4107 40 35.0179 39.2633 35.0179 38.3227V12.8758C35.0181 12.5065 34.918 12.1438 34.7365 11.854ZM33.8285 28.0869H23.4301C23.4305 25.3523 23.4311 22.4561 23.4318 19.9248H33.8268C33.8275 22.4552 33.828 25.3518 33.8285 28.0869ZM33.8264 18.7366H23.4321C23.4331 15.2787 23.4344 12.7548 23.436 12.743L33.8226 12.7612C33.824 12.773 33.8254 15.2883 33.8264 18.7366ZM28.6268 4.42047C28.6365 4.42297 33.1562 11.5721 33.1562 11.5721L24.1019 11.5562C24.1019 11.5562 28.622 4.42305 28.6259 4.42047H28.6268ZM14.1172 1.78547C14.1172 1.50344 14.5414 1.18805 15.1091 1.18805H27.0433C27.611 1.18805 28.0351 1.50336 28.0351 1.78547V3.23227L14.1172 3.23211V1.78547ZM22.2426 18.7366H6.17006V13.0197C6.17006 12.8695 6.29701 12.7424 6.44732 12.7424H22.2444C22.2437 12.7544 22.2431 15.2786 22.2426 18.7366ZM7.26264 11.5544L12.5917 4.86562C12.9429 4.41719 13.603 4.42125 13.6102 4.41992C13.6164 4.42016 27.1926 4.42039 27.1926 4.42039L22.699 11.5543L7.26264 11.5544ZM33.6343 38.8119H23.6246C23.5769 38.7998 23.4287 38.6314 23.4287 38.3227C23.4287 38.3227 23.429 34.2056 23.4298 29.2749H33.8287C33.8295 34.2049 33.8299 38.3227 33.8299 38.3227C33.83 38.6305 33.6825 38.799 33.6343 38.8119Z" fill="#80B501"/>
<path d="M11.3118 21.0428C11.1861 21.0085 11.0526 21.0165 10.9318 21.0655C10.8111 21.1145 10.7098 21.2019 10.6437 21.3141L9.60709 23.0713L8.51943 21.3046C8.4516 21.1945 8.3497 21.1095 8.2292 21.0625C8.10869 21.0156 7.97617 21.0093 7.85173 21.0445C7.7273 21.0797 7.61776 21.1546 7.53974 21.2577C7.46172 21.3609 7.41948 21.4866 7.41943 21.616V26.0438C7.41943 26.3719 7.68537 26.6378 8.0135 26.6378C8.34162 26.6378 8.60756 26.3719 8.60756 26.0438V23.714L9.11209 24.5335C9.16528 24.6198 9.2397 24.6912 9.32827 24.7406C9.41683 24.7901 9.51659 24.8161 9.61803 24.816H9.62365C9.72604 24.8151 9.82643 24.7877 9.91511 24.7365C10.0038 24.6853 10.0777 24.612 10.1297 24.5239L10.5613 23.7922V26.0439C10.5613 26.2014 10.6239 26.3525 10.7354 26.4639C10.7905 26.5191 10.856 26.5628 10.9281 26.5926C11.0002 26.6225 11.0774 26.6378 11.1554 26.6378C11.2335 26.6378 11.3107 26.6225 11.3828 26.5926C11.4549 26.5627 11.5203 26.519 11.5755 26.4638C11.6306 26.4086 11.6744 26.3431 11.7042 26.271C11.7341 26.199 11.7494 26.1217 11.7494 26.0437V21.6159C11.7494 21.4856 11.7066 21.3589 11.6275 21.2554C11.5484 21.1518 11.4375 21.0772 11.3118 21.0428ZM13.0006 21.0221C12.9226 21.022 12.8453 21.0374 12.7733 21.0673C12.7012 21.0971 12.6357 21.1409 12.5805 21.196C12.5254 21.2512 12.4816 21.3167 12.4517 21.3888C12.4219 21.4608 12.4065 21.5381 12.4065 21.6161V26.0439C12.4091 26.1998 12.4728 26.3485 12.5839 26.4578C12.695 26.5672 12.8447 26.6284 13.0006 26.6284C13.1565 26.6284 13.3062 26.5672 13.4173 26.4578C13.5284 26.3485 13.5921 26.1998 13.5947 26.0439V21.6161C13.5947 21.5381 13.5793 21.4608 13.5495 21.3888C13.5196 21.3167 13.4759 21.2512 13.4207 21.196C13.3655 21.1409 13.3 21.0971 13.228 21.0673C13.1559 21.0374 13.0786 21.022 13.0006 21.0221ZM16.6735 25.4499H15.3929V21.6161C15.3929 21.288 15.127 21.0221 14.7989 21.0221C14.4708 21.0221 14.2048 21.288 14.2048 21.6161V26.0439C14.2048 26.3721 14.4708 26.638 14.7989 26.638H16.6735C17.0016 26.638 17.2676 26.3721 17.2676 26.0439C17.2676 25.9659 17.2522 25.8887 17.2224 25.8166C17.1925 25.7445 17.1488 25.679 17.0936 25.6238C17.0384 25.5687 16.9729 25.5249 16.9009 25.495C16.8288 25.4652 16.7515 25.4498 16.6735 25.4499ZM21.3212 25.7271L19.9054 23.4818L21.0535 21.9764C21.1008 21.9143 21.1354 21.8436 21.1554 21.7681C21.1754 21.6927 21.1803 21.6141 21.1699 21.5368C21.1594 21.4595 21.1339 21.385 21.0947 21.3175C21.0555 21.2501 21.0034 21.191 20.9413 21.1437C20.8793 21.0964 20.8085 21.0618 20.7331 21.0418C20.6577 21.0218 20.5791 21.0169 20.5017 21.0273C20.4244 21.0377 20.3499 21.0633 20.2825 21.1025C20.215 21.1417 20.156 21.1938 20.1087 21.2559L18.8253 22.9387V21.6161C18.8253 21.288 18.5594 21.0221 18.2312 21.0221C17.9031 21.0221 17.6372 21.288 17.6372 21.6161V26.0439C17.6372 26.3721 17.9031 26.638 18.2312 26.638C18.5594 26.638 18.8253 26.3721 18.8253 26.0439V24.898L19.1365 24.4899L20.3161 26.3607C20.429 26.5399 20.8516 26.7435 21.1354 26.5464C21.405 26.3592 21.4962 26.0046 21.3212 25.7271Z" fill="#80B501"/>
</svg>
