<svg width="40" height="40" viewBox="0 0 40 40" fill="none" xmlns="http://www.w3.org/2000/svg">
<g clip-path="url(#clip0_156_374)">
<path d="M32.7488 27.7165L28.7189 24.5622C28.9875 23.3723 28.722 22.2242 27.918 21.2365C26.3061 19.2514 25.951 16.902 25.5765 14.4154C25.034 10.8202 24.4182 6.74638 19.8727 3.17979C17.3611 1.2088 14.7791 0.208801 12.198 0.208801C7.45778 0.208801 4.46745 3.56572 4.35493 3.69496C4.15581 3.91561 -0.543974 9.16968 0.318444 15.4457C0.843718 19.2695 3.3035 22.5833 7.63229 25.2985L7.71581 25.3455C8.06438 25.5187 16.2912 29.571 18.7527 30.331C19.8591 30.6721 20.7703 30.8321 21.6169 30.8321C22.3523 30.8321 23.034 30.7011 23.6648 30.4488L28.2068 33.3002C28.0244 34.662 27.9532 37.6453 30.4978 39.0382C31.1539 39.3976 31.8899 39.5861 32.638 39.5864C33.7097 39.5864 34.769 39.2009 35.5967 38.4545C36.6072 37.5433 37.0653 36.2862 36.9013 34.9961C37.7035 34.7978 38.7281 34.3714 39.3395 33.462C39.7422 32.8607 40.1031 31.818 39.536 30.2642C38.3738 27.0699 34.8402 27.1455 32.7488 27.7165ZM25.0776 26.6563L24.9888 26.8005C23.8305 28.7086 22.5097 28.9284 21.6182 28.9284C20.9664 28.9284 20.2354 28.7961 19.3149 28.513C17.0846 27.8251 9.2613 23.9837 8.60284 23.6607C4.80548 21.2673 2.65251 18.4215 2.20636 15.1991C1.45866 9.811 5.7224 5.02155 5.77515 4.96397C5.8002 4.93583 8.34218 2.11386 12.1989 2.11386C14.3439 2.11386 16.5308 2.97627 18.6987 4.67781C22.6494 7.77891 23.1558 11.1407 23.6938 14.7007C24.0908 17.3297 24.5013 20.0497 26.4406 22.4374C26.8239 22.9073 27.2499 23.6796 26.5479 24.9525C26.0398 25.8765 25.2147 26.5464 25.2094 26.5521L25.0776 26.6563ZM37.762 32.3969C37.3264 33.0497 36.0767 33.2497 35.6767 33.2686C35.5231 33.2746 35.3732 33.3178 35.2399 33.3944C35.1066 33.471 34.9938 33.5788 34.9112 33.7085C34.8287 33.8382 34.7788 33.9859 34.7658 34.1391C34.7528 34.2923 34.7771 34.4464 34.8367 34.5881C35.3839 35.8901 34.66 36.7367 34.3246 37.0391C33.6635 37.6352 32.507 37.9675 31.4121 37.3675C29.42 36.2774 30.173 33.0954 30.1804 33.0659C30.2295 32.871 30.2155 32.6656 30.1404 32.4792C30.0652 32.2928 29.9329 32.135 29.7624 32.0286L25.416 29.3007C25.8425 28.8888 26.2173 28.4265 26.5321 27.924C27.0574 27.4597 27.5224 26.9313 27.9162 26.3512L31.9668 29.5209C32.0926 29.6182 32.2405 29.6829 32.3973 29.7092C32.5541 29.7355 32.7151 29.7226 32.8657 29.6717C33.0248 29.615 36.8108 28.342 37.7483 30.9147C37.9844 31.5574 37.9879 32.0572 37.762 32.3969Z" fill="#80B501"/>
<path d="M16.3489 5.51295C12.4474 3.29669 9.28257 4.97361 8.15422 6.16922C7.98107 6.35287 7.88782 6.59769 7.89491 6.85C7.90199 7.1023 8.00884 7.3415 8.19202 7.51515C8.37663 7.68834 8.61092 7.77405 8.84609 7.77405C9.09839 7.77405 9.3507 7.67471 9.53795 7.47603C9.55949 7.45229 11.8166 5.12878 15.4083 7.16878C15.6279 7.29351 15.888 7.32592 16.1315 7.25886C16.3749 7.1918 16.5818 7.03077 16.7065 6.81119C16.8313 6.59162 16.8637 6.33148 16.7966 6.08801C16.7295 5.84455 16.5685 5.63769 16.3489 5.51295ZM18.0949 7.01229C17.786 7.01299 17.4901 7.13607 17.2718 7.35457C17.0536 7.57307 16.9308 7.86917 16.9305 8.17801C16.9311 8.48677 17.0539 8.78273 17.2721 9.00119C17.4903 9.21964 17.7861 9.34279 18.0949 9.34372C18.4039 9.34314 18.7 9.22014 18.9185 9.00165C19.137 8.78316 19.26 8.48699 19.2606 8.17801C19.2602 7.86895 19.1373 7.57265 18.9188 7.35411C18.7002 7.13557 18.4039 7.01264 18.0949 7.01229Z" fill="#80B501"/>
</g>
<defs>
<clipPath id="clip0_156_374">
<rect width="40" height="40" fill="white"/>
</clipPath>
</defs>
</svg>
