<svg width="40" height="40" viewBox="0 0 40 40" fill="none" xmlns="http://www.w3.org/2000/svg">
<g clip-path="url(#clip0_156_354)">
<path d="M39.2188 16.1328H32.8125V14.4792C32.8125 14.0477 32.4627 13.6979 32.0312 13.6979H15.1562C14.7248 13.6979 14.375 14.0477 14.375 14.4792C14.375 14.9107 14.7248 15.2604 15.1562 15.2604H31.25V21.2499C31.25 26.5115 28.4409 31.4017 23.9048 34.0624H8.90766C4.37164 31.4017 1.5625 26.5115 1.5625 21.25V15.2605H6.79688C7.22828 15.2605 7.57812 14.9107 7.57812 14.4792C7.57812 14.0478 7.22828 13.698 6.79688 13.698H0.78125C0.349844 13.698 0 14.0478 0 14.4792V21.25C0 24.2032 0.79375 27.0988 2.29547 29.6237C3.3082 31.3266 4.62227 32.8303 6.16109 34.0625H0.78125C0.349844 34.0625 0 34.4123 0 34.8438C0 37.687 2.31305 40 5.15625 40H29.5312C32.3745 40 34.6875 37.687 34.6875 34.8438C34.6875 34.4123 34.3377 34.0625 33.9062 34.0625H26.6514C28.0714 32.9256 29.2937 31.5617 30.2687 30.026H32.474C36.6238 30.026 40 26.6499 40 22.5V16.9141C40 16.4826 39.6502 16.1328 39.2188 16.1328ZM33.0395 35.625C32.6818 37.2322 31.2446 38.4375 29.5312 38.4375H5.15625C3.44289 38.4375 2.00578 37.2322 1.64805 35.625H33.0395ZM32.8125 21.25V20.8203H35.3125V22.5C35.3125 24.0652 34.0391 25.3385 32.474 25.3385H32.2966C32.6393 24.0027 32.8126 22.6291 32.8125 21.25ZM38.4375 22.5C38.4375 25.7883 35.7623 28.4635 32.474 28.4635H31.1443C31.3936 27.9546 31.6162 27.4331 31.8112 26.901H32.474C34.9008 26.901 36.875 24.9267 36.875 22.5V20.0391C36.875 19.6076 36.5252 19.2578 36.0938 19.2578H32.8125V17.6953H38.4375V22.5ZM17.1523 4.3237L16.7458 3.81331C16.1491 3.06424 16.1482 2.01714 16.7437 1.26698C17.012 0.929011 16.9554 0.437604 16.6174 0.169401C16.2794 -0.098958 15.788 -0.0423174 15.5198 0.295651C14.4696 1.61878 14.4712 3.46557 15.5236 4.78682L15.9301 5.29721C16.7098 6.27612 16.711 7.64448 15.9329 8.62487L15.5163 9.14971C15.248 9.48768 15.3046 9.97909 15.6426 10.2473C15.7805 10.3571 15.9515 10.4168 16.1277 10.4167C16.2455 10.4168 16.3618 10.3903 16.4679 10.3391C16.574 10.2879 16.6671 10.2134 16.7402 10.121L17.1568 9.5962C18.3896 8.04292 18.3878 5.87479 17.1523 4.3237ZM21.4827 6.08026L21.0762 5.56995C20.4795 4.82081 20.4786 3.7737 21.0741 3.02354C21.3423 2.68557 21.2858 2.19417 20.9478 1.92596C20.6098 1.6576 20.1184 1.71425 19.8502 2.05221C18.8 3.37534 18.8016 5.22214 19.854 6.54346L20.2605 7.05385C21.0402 8.03284 21.0413 9.40128 20.2632 10.3816L19.8467 10.9064C19.5784 11.2443 19.635 11.7357 19.973 12.0039C20.1108 12.1137 20.2819 12.1734 20.4581 12.1732C20.5759 12.1734 20.6922 12.1469 20.7983 12.0957C20.9044 12.0445 20.9975 11.9699 21.0706 11.8776L21.487 11.3528C22.7199 9.79963 22.7181 7.63151 21.4827 6.08026ZM12.8219 6.08034L12.4154 5.57003C11.8187 4.82096 11.8178 3.77378 12.4132 3.02362C12.6815 2.68565 12.6249 2.19425 12.287 1.92596C11.9489 1.65768 11.4576 1.7144 11.1893 2.05221C10.1392 3.37534 10.1408 5.22221 11.1932 6.54346L11.5997 7.05385C12.3794 8.03284 12.3805 9.40128 11.6025 10.3815L11.1859 10.9063C10.9177 11.2442 10.9741 11.7357 11.3121 12.0039C11.45 12.1137 11.621 12.1734 11.7973 12.1733C11.915 12.1735 12.0313 12.147 12.1374 12.0958C12.2435 12.0446 12.3365 11.9701 12.4097 11.8778L12.8263 11.3529C14.0591 9.79971 14.0573 7.63159 12.8219 6.08034Z" fill="#80B501"/>
<path d="M11.7408 13.9266C11.5955 13.7813 11.3939 13.6977 11.1885 13.6977C10.983 13.6977 10.7814 13.7813 10.6361 13.9266C10.4909 14.0727 10.4072 14.2735 10.4072 14.4789C10.4072 14.6844 10.4908 14.886 10.6361 15.0321C10.7814 15.1774 10.983 15.2602 11.1885 15.2602C11.3939 15.2602 11.5955 15.1774 11.7408 15.0321C11.8871 14.8851 11.9694 14.6863 11.9697 14.4789C11.9697 14.2735 11.8868 14.0719 11.7408 13.9266ZM28.2814 20.4688C27.85 20.4688 27.5002 20.8186 27.5002 21.25C27.5002 24.15 26.3239 26.9999 24.273 29.069C23.9693 29.3754 23.9715 29.8701 24.2779 30.1739C24.4241 30.3191 24.6219 30.4005 24.8279 30.4003C24.9311 30.4004 25.0333 30.38 25.1286 30.3402C25.2239 30.3005 25.3103 30.2423 25.3829 30.1689C27.7214 27.8095 29.0627 24.5587 29.0627 21.25C29.0627 20.8186 28.7129 20.4688 28.2814 20.4688ZM22.96 31.1895C22.7479 30.8136 22.2714 30.6809 21.8957 30.8928L21.8779 30.9029C21.502 31.115 21.3693 31.5914 21.5812 31.9672C21.6316 32.0566 21.6991 32.1352 21.7798 32.1985C21.8606 32.2618 21.953 32.3085 22.0519 32.3361C22.1507 32.3636 22.254 32.3714 22.3559 32.3591C22.4577 32.3467 22.5562 32.3143 22.6455 32.2639L22.6633 32.2538C23.0392 32.0418 23.1719 31.5653 22.96 31.1895Z" fill="#80B501"/>
</g>
<defs>
<clipPath id="clip0_156_354">
<rect width="40" height="40" fill="white"/>
</clipPath>
</defs>
</svg>
