<svg width="40" height="40" viewBox="0 0 40 40" fill="none" xmlns="http://www.w3.org/2000/svg">
<g clip-path="url(#clip0_156_331)">
<path d="M24.5301 8.54302C23.7032 6.80316 21.9249 5.67902 20 5.67902C18.0751 5.67902 16.2969 6.80316 15.47 8.54302C15.4367 8.61293 15.4176 8.68871 15.4136 8.76602C15.4097 8.84333 15.421 8.92066 15.4469 8.9936C15.4729 9.06654 15.5129 9.13366 15.5648 9.19112C15.6167 9.24858 15.6794 9.29526 15.7493 9.32849C15.8192 9.36176 15.895 9.38093 15.9723 9.3849C16.0496 9.38887 16.127 9.37756 16.1999 9.35163C16.2729 9.32569 16.34 9.28563 16.3975 9.23373C16.4549 9.18184 16.5016 9.11913 16.5348 9.04919C17.1675 7.71817 18.5277 6.85809 20 6.85809C21.4724 6.85809 22.8325 7.71809 23.4652 9.04919C23.4984 9.11913 23.5451 9.18183 23.6026 9.23371C23.66 9.2856 23.7271 9.32566 23.8001 9.35159C23.873 9.37753 23.9504 9.38884 24.0277 9.38488C24.105 9.38091 24.1808 9.36175 24.2507 9.32849C24.3207 9.29526 24.3834 9.24859 24.4352 9.19113C24.4871 9.13367 24.5272 9.06656 24.5531 8.99362C24.5791 8.92068 24.5904 8.84335 24.5864 8.76603C24.5825 8.68872 24.5634 8.61294 24.5301 8.54302ZM32.037 13.0493C30.8392 11.5424 28.8526 10.8497 26.9762 11.285C26.9008 11.3025 26.8296 11.3346 26.7666 11.3796C26.7036 11.4246 26.6501 11.4816 26.6091 11.5473C26.5682 11.613 26.5405 11.6861 26.5278 11.7625C26.5151 11.8389 26.5176 11.917 26.5351 11.9924C26.5526 12.0678 26.5847 12.1391 26.6297 12.2021C26.6747 12.2651 26.7317 12.3186 26.7974 12.3596C26.8631 12.4005 26.9363 12.4282 27.0126 12.4408C27.089 12.4535 27.1671 12.451 27.2426 12.4335C28.6779 12.1009 30.1978 12.6302 31.114 13.783C32.0301 14.9356 32.2031 16.5356 31.5547 17.859C31.5206 17.9285 31.5006 18.0041 31.4957 18.0814C31.4908 18.1586 31.5012 18.2361 31.5263 18.3093C31.5514 18.3826 31.5906 18.4502 31.6418 18.5083C31.693 18.5663 31.7552 18.6138 31.8247 18.6478C31.8942 18.6819 31.9698 18.702 32.047 18.7068C32.1243 18.7117 32.2018 18.7013 32.275 18.6762C32.3483 18.6511 32.4159 18.6119 32.4739 18.5607C32.532 18.5095 32.5795 18.4474 32.6135 18.3778C33.461 16.6479 33.2348 14.5564 32.037 13.0493ZM13.0239 11.2851C11.1472 10.85 9.16081 11.5424 7.96314 13.0494C6.76532 14.5564 6.53907 16.648 7.38658 18.3779C7.45539 18.5183 7.57715 18.6256 7.72507 18.6763C7.873 18.7269 8.03499 18.7168 8.17541 18.648C8.31582 18.5792 8.42316 18.4574 8.47381 18.3095C8.52446 18.1616 8.51427 17.9996 8.44549 17.8592C7.79705 16.5357 7.9701 14.9358 8.8862 13.7831C9.8023 12.6303 11.3222 12.1012 12.7575 12.4336C12.833 12.4511 12.9111 12.4536 12.9875 12.4409C13.0638 12.4282 13.1369 12.4006 13.2026 12.3596C13.2683 12.3186 13.3253 12.2651 13.3703 12.2021C13.4153 12.1392 13.4475 12.0679 13.465 11.9925C13.4825 11.9171 13.485 11.839 13.4723 11.7626C13.4596 11.6862 13.4319 11.6131 13.391 11.5474C13.35 11.4817 13.2965 11.4247 13.2335 11.3797C13.1705 11.3347 13.0993 11.3025 13.0239 11.2851Z" fill="#80B501"/>
<path d="M35.3747 11.5603C35.4298 11.2275 35.4575 10.8907 35.4576 10.5533C35.4576 6.91279 32.2907 3.95097 28.3979 3.95097C27.6739 3.95097 26.9634 4.05308 26.279 4.25496C25.0754 2.0626 22.6688 0.673218 20.0001 0.673218C17.3314 0.673218 14.9249 2.0626 13.7213 4.25496C13.0368 4.05308 12.3263 3.95097 11.6023 3.95097C10.2821 3.95097 8.99451 4.29394 7.87864 4.94285C7.7435 5.02148 7.64511 5.15056 7.60512 5.3017C7.56512 5.45285 7.58679 5.6137 7.66536 5.74887C7.74401 5.88398 7.87309 5.98234 8.02423 6.02233C8.17536 6.06232 8.33619 6.04068 8.47138 5.96216C9.4074 5.41786 10.4901 5.13012 11.6023 5.13012C12.3648 5.13012 13.1088 5.26418 13.8138 5.5284C13.9544 5.58118 14.1099 5.57828 14.2484 5.5203C14.387 5.46233 14.4982 5.35364 14.5593 5.21645C15.4703 3.17284 17.6059 1.85237 20.0001 1.85237C22.3943 1.85237 24.5299 3.17284 25.4409 5.21645C25.5021 5.35361 25.6133 5.46228 25.7518 5.52025C25.8903 5.57822 26.0458 5.58114 26.1864 5.5284C26.8914 5.2641 27.6355 5.13012 28.3979 5.13012C31.6405 5.13012 34.2786 7.56295 34.2786 10.5534C34.2786 10.9775 34.2237 11.4037 34.1156 11.8201C34.0763 11.9714 34.0987 12.1321 34.1779 12.2669C34.2571 12.4017 34.3866 12.4996 34.5379 12.5389C37.0598 13.1943 38.8212 15.3405 38.8212 17.7578C38.8212 20.7482 36.1831 23.181 32.9405 23.181C32.8103 23.181 32.6807 23.1818 32.5521 23.1826C31.7869 23.1876 31.1071 23.1916 30.5046 23.0393C30.4997 23.038 30.4952 23.0359 30.4903 23.0346C30.2743 22.9794 30.0765 22.9057 29.8931 22.8116C29.8904 22.8101 29.8876 22.8089 29.8849 22.8074C29.8313 22.7794 29.7787 22.7495 29.7273 22.7176C29.7172 22.7115 29.707 22.7056 29.697 22.6993C29.6501 22.6694 29.6042 22.6379 29.5593 22.605C29.5463 22.5955 29.5331 22.5861 29.5203 22.5762C29.4633 22.533 29.4082 22.4874 29.3551 22.4395C29.3112 22.4003 29.2686 22.3597 29.2272 22.3179C29.219 22.3095 29.2109 22.3008 29.2027 22.2923C29.1568 22.2448 29.1124 22.1958 29.0695 22.1455C29.0387 22.1093 29.007 22.0739 28.9743 22.0394C28.9637 22.028 28.9528 22.0169 28.942 22.0058C28.9188 21.9819 28.8952 21.9585 28.8711 21.9355C28.8595 21.9244 28.8481 21.913 28.8363 21.9022C28.8046 21.873 28.7723 21.8445 28.7394 21.8169C28.7249 21.8047 28.71 21.793 28.6953 21.7812C28.673 21.7633 28.6504 21.7456 28.6275 21.7283C28.6124 21.7169 28.5973 21.7055 28.5819 21.6944C28.5456 21.6683 28.5091 21.6429 28.4717 21.6187C28.4669 21.6155 28.4618 21.6126 28.4569 21.6094C28.4186 21.585 28.3798 21.5616 28.3404 21.539L28.3223 21.5287C27.5581 21.0986 26.5998 21.0375 25.7173 21.406C24.3343 21.9837 22.956 22.3356 21.6048 22.4608C21.3975 22.48 21.1912 22.494 20.9874 22.5025L20.9772 22.5028C20.7758 22.5113 20.5742 22.5145 20.3727 22.5124L19.2652 22.4994L19.2496 22.499C19.1736 22.498 19.0975 22.4958 19.0213 22.4933C18.9852 22.4919 18.9493 22.4908 18.9127 22.489C18.8842 22.4878 18.8556 22.486 18.8271 22.4845C18.725 22.479 18.6214 22.4724 18.514 22.4638H18.5132C17.1481 22.3543 15.7494 21.9924 14.3445 21.3822C13.6048 21.0611 12.7895 21.0529 12.0791 21.316C12.0704 21.3188 12.0616 21.3206 12.0529 21.3239C11.9648 21.3578 11.8786 21.396 11.7944 21.4386C11.7292 21.471 11.6652 21.5055 11.6029 21.5427L11.5958 21.5468C11.5493 21.5749 11.5035 21.6044 11.4585 21.6351C11.4344 21.6515 11.4102 21.668 11.3865 21.6852C11.3379 21.7206 11.2905 21.7575 11.2441 21.7958C11.2101 21.824 11.1767 21.8528 11.144 21.8826C11.1383 21.8879 11.1323 21.8927 11.1267 21.898C11.0782 21.9432 11.0314 21.9901 10.9862 22.0387C10.9511 22.0762 10.9165 22.1146 10.8833 22.1544L10.8802 22.1578C10.8419 22.2035 10.8023 22.248 10.7614 22.2915C10.7509 22.3026 10.7405 22.3139 10.73 22.3248C10.6942 22.3619 10.6578 22.3973 10.6209 22.4316C10.6031 22.4481 10.5851 22.4638 10.5672 22.4796C10.546 22.4982 10.5245 22.5161 10.503 22.5338C10.4658 22.5642 10.4283 22.5933 10.3904 22.621C10.3773 22.6305 10.3643 22.6401 10.3512 22.6493C10.2952 22.6884 10.2386 22.725 10.1809 22.7586L10.1803 22.759C10.15 22.7766 10.1194 22.7935 10.0887 22.8098C10.0801 22.8142 10.0714 22.8184 10.0628 22.8228C9.99027 22.86 9.91599 22.8937 9.84021 22.9237C9.76934 22.9517 9.69741 22.9771 9.62459 22.9996C8.99693 23.1926 8.27927 23.1882 7.46387 23.1828C7.3302 23.1819 7.19559 23.181 7.05996 23.181C3.81737 23.181 1.1793 20.7482 1.1793 17.7578C1.1793 15.3405 2.94072 13.1943 5.46261 12.5389C5.61392 12.4996 5.74342 12.4017 5.82261 12.2669C5.9018 12.1321 5.9242 11.9714 5.88488 11.8201C5.7771 11.4064 5.72234 10.9808 5.72191 10.5534C5.72191 9.52804 6.03371 8.52983 6.62363 7.66678C6.71182 7.53766 6.74513 7.37882 6.71625 7.22515C6.68736 7.07149 6.59863 6.93558 6.46957 6.84732C6.34046 6.75913 6.18161 6.72581 6.02795 6.7547C5.87428 6.78359 5.73838 6.87232 5.65011 7.00138C4.92573 8.06131 4.54284 9.2896 4.54284 10.5533C4.54284 10.8895 4.57065 11.2265 4.62581 11.5603C1.87556 12.5048 0 14.9817 0 17.7578C0 21.3983 3.16697 24.36 7.05973 24.36C7.1927 24.36 7.32481 24.3609 7.45575 24.3618C7.58309 24.3627 7.71059 24.3635 7.83848 24.3635C8.42466 24.3635 9.01341 24.3451 9.58224 24.2262C14.6731 29.2817 15.2294 33.372 15.2294 34.9111V37.203C15.2294 37.6817 15.5129 38.3548 16.8635 38.8424C17.7288 39.1548 18.8671 39.3268 20.0689 39.3268C21.2706 39.3268 22.409 39.1548 23.2743 38.8424C24.6249 38.3548 24.9084 37.6817 24.9084 37.203V34.911C24.9084 33.0168 25.5823 30.9536 26.9111 28.7786C26.9515 28.7126 26.9784 28.6392 26.9904 28.5627C27.0024 28.4862 26.9993 28.4081 26.9811 28.3329C26.9629 28.2576 26.9301 28.1867 26.8845 28.1241C26.8389 28.0616 26.7815 28.0086 26.7154 27.9682C26.6493 27.9278 26.576 27.9009 26.4995 27.8889C26.423 27.8768 26.3449 27.88 26.2696 27.8982C26.1944 27.9164 26.1235 27.9492 26.0609 27.9948C25.9983 28.0404 25.9453 28.0979 25.905 28.1639C24.4613 30.5266 23.7294 32.7967 23.7294 34.911L23.7297 37.1994C23.718 37.2555 23.5222 37.5163 22.7777 37.7669C22.0477 38.0124 21.0857 38.1477 20.0689 38.1477C19.052 38.1477 18.09 38.0124 17.36 37.7669C16.6155 37.5163 16.4198 37.2555 16.4084 37.2029V34.911C16.4084 30.2755 12.8598 25.9191 10.7882 23.7716C10.9256 23.6904 11.0575 23.6001 11.183 23.5013L11.1944 23.4924C11.2308 23.4636 11.267 23.4337 11.303 23.403L11.3223 23.3866C11.3551 23.3581 11.3877 23.3287 11.4201 23.2987C11.4282 23.2911 11.4365 23.2837 11.4446 23.2761C11.475 23.2474 11.5051 23.2176 11.5351 23.1874C11.5441 23.1784 11.5533 23.1696 11.5623 23.1605C11.5919 23.1301 11.6212 23.0985 11.6505 23.0666C11.6589 23.0573 11.6675 23.0486 11.6758 23.0393C11.7128 22.9982 11.7495 22.956 11.7859 22.9123C11.8175 22.8744 11.8505 22.8393 11.8841 22.8053C11.8981 22.7912 11.9127 22.7778 11.9272 22.7642C11.9653 22.7284 12.005 22.6943 12.0463 22.6623C12.0569 22.6541 12.0678 22.6464 12.0785 22.6384C12.1055 22.6188 12.1325 22.5994 12.1607 22.5813C13.7236 24.0326 15.7231 26.2583 16.9527 29.0229C17.1238 29.4078 17.5178 29.617 17.9332 29.5432C18.1322 29.5083 18.3137 29.4076 18.4487 29.2573C18.5837 29.1069 18.6643 28.9157 18.6776 28.7141L19.0159 23.6731C19.095 23.6756 19.1732 23.6774 19.2512 23.6783L20.3586 23.6912C20.4084 23.6919 20.458 23.6922 20.5078 23.6922C20.5548 23.6922 20.602 23.6908 20.6491 23.6902C20.6928 23.6897 20.7363 23.6894 20.7802 23.6884C20.8911 23.6861 21.0022 23.6822 21.1134 23.6769L21.122 23.6766L21.46 28.714C21.4734 28.9155 21.554 29.1068 21.6889 29.2571C21.8238 29.4074 22.0052 29.5081 22.2041 29.5431C22.6201 29.6171 23.0136 29.4078 23.185 29.0228C24.3965 26.2983 26.3588 24.097 27.8978 22.6551C27.9004 22.657 27.903 22.6588 27.9055 22.6608C27.9463 22.6908 27.9852 22.7234 28.023 22.7575C28.0313 22.765 28.0399 22.7719 28.048 22.7797C28.0907 22.8197 28.1312 22.8622 28.1691 22.9069C28.2091 22.9541 28.2501 23.0005 28.292 23.0459C28.2997 23.0542 28.3076 23.062 28.3152 23.0702C28.3501 23.1075 28.385 23.144 28.4203 23.1791C28.4269 23.1855 28.4335 23.1917 28.4401 23.1981C28.4779 23.2352 28.5159 23.2713 28.5543 23.3062L28.5667 23.3171C28.6093 23.3555 28.6523 23.3924 28.6956 23.428L28.6966 23.4288C28.8815 23.5816 29.081 23.7158 29.2922 23.8296C28.7809 24.3624 28.1701 25.04 27.5484 25.8234C27.5002 25.8841 27.4645 25.9536 27.4433 26.0281C27.422 26.1025 27.4156 26.1804 27.4245 26.2573C27.4333 26.3342 27.4572 26.4087 27.4949 26.4763C27.5325 26.544 27.583 26.6036 27.6437 26.6517C27.7043 26.6999 27.7738 26.7356 27.8483 26.7568C27.9227 26.7781 28.0006 26.7845 28.0776 26.7756C28.1545 26.7668 28.2289 26.7429 28.2966 26.7052C28.3642 26.6676 28.4238 26.6171 28.472 26.5564C29.235 25.5948 29.9813 24.7994 30.5314 24.2494C31.1946 24.3699 31.8817 24.3658 32.5591 24.3615C32.6853 24.3607 32.8124 24.3599 32.9403 24.3599C36.833 24.3599 40 21.3982 40 17.7577C40.0002 14.9817 38.1247 12.5048 35.3747 11.5603ZM17.571 27.5949C16.4622 25.4746 14.9766 23.7055 13.6571 22.3864C13.7327 22.4082 13.8059 22.4337 13.8746 22.4636C15.2032 23.0405 16.5317 23.4134 17.8404 23.5793L17.571 27.5949ZM22.5667 27.595L22.2965 23.5691C23.5779 23.3948 24.8748 23.0355 26.1715 22.4939C26.2679 22.4541 26.3674 22.4223 26.469 22.3988C25.1584 23.711 23.6746 25.4772 22.5667 27.595Z" fill="#80B501"/>
</g>
<defs>
<clipPath id="clip0_156_331">
<rect width="40" height="40" fill="white"/>
</clipPath>
</defs>
</svg>
