<svg width="40" height="40" viewBox="0 0 40 40" fill="none" xmlns="http://www.w3.org/2000/svg">
<g clip-path="url(#clip0_156_384)">
<path d="M40 18.9276C40 13.7564 37.9863 8.89477 34.3298 5.23831C34.2201 5.12862 34.0713 5.067 33.9161 5.067C33.7609 5.067 33.6121 5.12862 33.5024 5.23831L13.0812 25.6594C11.5627 24.8576 10.175 25.0902 8.58308 25.3689C7.86062 22.7622 6.04913 21.7526 5.95364 21.7012C5.66913 21.5479 5.31434 21.6545 5.16113 21.939C5.00791 22.2235 5.11432 22.5783 5.3989 22.7315C5.41583 22.7406 6.6438 23.4261 7.30152 25.2117C5.41014 24.7424 3.39472 25.391 2.04591 26.773C0.193073 20.0162 2.42107 9.87911 11.0478 9.89113C14.8854 9.89113 18.2735 12.4167 19.5389 16.003C19.5638 16.0763 19.603 16.1439 19.6542 16.202C19.7054 16.26 19.7676 16.3073 19.8373 16.3412C19.9069 16.375 19.9825 16.3947 20.0598 16.3991C20.1371 16.4035 20.2145 16.3925 20.2875 16.3667C20.3605 16.341 20.4277 16.301 20.4851 16.2492C20.5426 16.1973 20.5891 16.1345 20.6222 16.0645C20.6552 15.9945 20.674 15.9186 20.6775 15.8413C20.681 15.764 20.6691 15.6867 20.6425 15.614C19.9016 13.5104 18.5507 11.6937 16.6942 10.4445C16.8611 9.57378 17.2152 8.74967 17.732 8.02924L18.5034 6.95588C19.2441 5.92489 18.0995 4.49276 16.9207 5.0301L15.0835 5.86872C15.0433 4.29813 15.4424 3.0913 16.3946 1.84164C16.6841 1.43871 16.6671 0.910419 16.352 0.527151C16.037 0.143726 15.522 0.0248375 15.0706 0.230553C13.4345 0.977352 11.8564 1.64037 10.9792 3.34397C10.1086 1.65324 8.51544 0.973452 6.88774 0.230553C6.43645 0.0244475 5.92134 0.143804 5.60641 0.527073C5.29141 0.910419 5.27424 1.43863 5.56374 1.84164C6.51119 3.09247 6.91879 4.29516 6.87495 5.86872L5.03756 5.0301C3.88276 4.50314 2.6991 5.90375 3.45503 6.95588L4.2264 8.02924C4.75012 8.7594 5.10662 9.59593 5.27058 10.4794C-0.0927601 14.1276 -0.672382 22.2471 1.16688 27.9149C-0.306822 30.3509 -0.373911 34.0366 0.904845 36.5587C0.976418 36.6946 1.09858 36.7969 1.24497 36.8436C1.39135 36.8902 1.5502 36.8774 1.68723 36.808C1.82427 36.7385 1.92848 36.6179 1.97737 36.4723C2.02626 36.3266 2.01591 36.1676 1.94856 36.0295C0.535073 33.2412 0.958049 28.5105 3.87831 26.8109C5.15652 26.0669 6.277 26.2374 7.62643 26.5074C7.68102 26.8817 7.70816 27.2595 7.70764 27.6377C7.70764 27.9609 7.96952 28.2228 8.29272 28.2228C8.61592 28.2228 8.87781 27.9609 8.87781 27.6377C8.87781 27.2408 8.8537 26.8675 8.8104 26.5163C10.1891 26.2628 11.3501 26.0132 12.6664 26.7649C16.3698 28.8796 16.3764 36.0751 12.6529 38.1523C11.6291 38.7235 10.3192 38.8775 9.20889 38.466C8.58057 38.263 7.90425 38.263 7.27593 38.466C6.03828 38.864 4.7447 38.679 3.63391 37.9455C3.56981 37.9022 3.49777 37.8721 3.42196 37.8568C3.34615 37.8415 3.26806 37.8415 3.19222 37.8566C3.11638 37.8717 3.04429 37.9017 2.98011 37.9448C2.91594 37.988 2.86095 38.0434 2.81833 38.108C2.77572 38.1725 2.74631 38.2448 2.73183 38.3208C2.71734 38.3967 2.71806 38.4748 2.73393 38.5505C2.74981 38.6262 2.78053 38.698 2.82432 38.7617C2.86812 38.8255 2.92411 38.8799 2.98907 38.9218C4.38133 39.8414 6.0744 40.0814 7.634 39.5801C8.0295 39.4521 8.45531 39.4521 8.85081 39.5801C10.297 40.0698 11.8891 39.9185 13.223 39.1743C13.68 38.9193 14.1001 38.6011 14.4751 38.2313C15.837 39.2938 17.5151 39.8704 19.2425 39.8695C21.2091 39.8695 23.0069 39.1342 24.3763 37.9245C28.1554 37.185 31.5942 35.3527 34.3298 32.6171C37.9863 28.9605 40 24.099 40 18.9276ZM5.17665 7.34633L4.40528 6.27297C4.36261 6.13841 4.41144 6.07896 4.5517 6.09472C5.42683 6.49414 6.33496 6.85494 7.18294 7.3106C7.27207 7.35854 7.37211 7.38253 7.47329 7.38024C7.57447 7.37794 7.67333 7.34944 7.76019 7.29751C7.84706 7.24558 7.91897 7.17201 7.9689 7.08398C8.01883 6.99594 8.04506 6.89646 8.04504 6.79526C8.04504 4.78772 7.99043 3.13319 6.71448 1.43785C8.61507 2.30541 10.394 3.34857 10.394 5.75272C10.394 6.07592 10.6559 6.3378 10.9791 6.3378C11.3023 6.3378 11.5642 6.07592 11.5642 5.75272C11.5642 3.36106 13.3434 2.30541 15.2437 1.43793C13.9679 3.13327 13.9133 4.78772 13.9133 6.79526C13.9133 6.89646 13.9395 6.99594 13.9895 7.08395C14.0394 7.17197 14.1114 7.24553 14.1983 7.29744C14.2851 7.34935 14.384 7.37783 14.4852 7.38011C14.5863 7.38239 14.6864 7.35839 14.7755 7.31044C15.6233 6.85447 16.5312 6.49414 17.4064 6.09464C17.5467 6.07888 17.5955 6.13833 17.5529 6.2729L16.7817 7.34633C16.247 8.09055 15.8578 8.93385 15.6348 9.82076C14.2195 9.09916 12.6575 8.72096 11.0478 8.72096C9.41195 8.70786 7.78409 9.09869 6.33051 9.84869C6.10873 8.95148 5.71727 8.09859 5.17665 7.34633ZM15.2254 37.3328C17.1482 34.5475 17.0593 29.8035 14.893 27.152C16.0958 26.0917 17.6201 25.5121 19.2426 25.5121C22.8782 25.5121 25.8362 28.4699 25.8362 32.1056C25.8362 35.7413 22.8783 38.6992 19.2426 38.6992C17.7893 38.7001 16.3767 38.2196 15.2254 37.3328ZM25.7066 36.4009C26.1873 35.6807 26.5437 34.8848 26.7607 34.0465C28.7895 33.227 30.609 32.0217 32.1718 30.4589C34.4571 28.1736 35.9988 25.2974 36.6301 22.1415C36.6452 22.0662 36.6453 21.9886 36.6304 21.9132C36.6155 21.8378 36.5859 21.7661 36.5433 21.7022C36.5007 21.6383 36.4459 21.5833 36.382 21.5406C36.3182 21.4978 36.2466 21.4681 36.1712 21.453C36.0959 21.4379 36.0183 21.4378 35.9429 21.4527C35.8675 21.4675 35.7958 21.4971 35.7318 21.5398C35.6679 21.5824 35.613 21.6372 35.5702 21.7011C35.5275 21.7649 35.4977 21.8366 35.4827 21.9119C34.8967 24.8407 33.4658 27.5101 31.3443 29.6315C30.0659 30.9099 28.6027 31.93 26.9853 32.675C27.3081 28.2435 23.6883 24.3419 19.2426 24.3419C17.3466 24.3419 15.5636 25.0127 14.1524 26.2432L31.7502 8.64529C34.3945 11.4964 35.8206 15.185 35.7771 19.0964C35.7762 19.1733 35.7905 19.2495 35.8192 19.3208C35.8478 19.3921 35.8901 19.4571 35.9439 19.5121C35.9976 19.567 36.0616 19.6108 36.1323 19.641C36.203 19.6712 36.2789 19.6871 36.3557 19.688C36.6784 19.6911 36.9437 19.4325 36.9473 19.1094C36.9941 14.8805 35.4459 10.8941 32.5774 7.81814L33.9097 6.48587C37.0871 9.8692 38.8298 14.2643 38.8298 18.9276C38.8298 23.7863 36.9378 28.3541 33.5024 31.7894C31.3127 33.9791 28.6438 35.5532 25.7066 36.4009Z" fill="#80B501"/>
<path d="M28.0074 25.467C27.8976 25.3573 27.7488 25.2956 27.5936 25.2956C27.4384 25.2956 27.2896 25.3573 27.1799 25.467C27.0702 25.5767 27.0085 25.7256 27.0085 25.8808C27.0085 26.0359 27.0702 26.1848 27.1799 26.2945L28.0634 27.178C28.1777 27.2922 28.3275 27.3493 28.4772 27.3493C28.6269 27.3493 28.7767 27.2922 28.891 27.178C28.9453 27.1237 28.9884 27.0592 29.0178 26.9882C29.0472 26.9172 29.0624 26.8411 29.0624 26.7643C29.0624 26.6875 29.0472 26.6114 29.0178 26.5404C28.9884 26.4694 28.9453 26.4049 28.891 26.3506L28.0074 25.467ZM31.1687 22.616L30.0298 22.1085C29.8881 22.0453 29.727 22.0411 29.5822 22.0966C29.4373 22.1522 29.3204 22.263 29.2573 22.4048C29.1941 22.5465 29.1898 22.7075 29.2454 22.8524C29.301 22.9973 29.4118 23.1142 29.5535 23.1773L30.6924 23.6848C30.8336 23.7447 30.9927 23.7468 31.1354 23.6906C31.2781 23.6344 31.3931 23.5244 31.4555 23.3843C31.5179 23.2442 31.5229 23.0852 31.4692 22.9415C31.4156 22.7978 31.3076 22.6809 31.1687 22.616ZM31.9173 18.2856L30.6788 18.2235C30.602 18.2196 30.5253 18.2309 30.4529 18.2567C30.3806 18.2825 30.314 18.3223 30.257 18.3738C30.2 18.4254 30.1537 18.4876 30.1208 18.5571C30.0879 18.6265 30.069 18.7017 30.0651 18.7784C30.0613 18.8552 30.0726 18.9319 30.0984 19.0043C30.1242 19.0767 30.164 19.1432 30.2155 19.2002C30.267 19.2572 30.3293 19.3035 30.3987 19.3364C30.4681 19.3693 30.5434 19.3882 30.6201 19.3921L31.8586 19.4542C31.9353 19.458 32.0121 19.4467 32.0844 19.4209C32.1568 19.3951 32.2234 19.3553 32.2804 19.3038C32.3374 19.2522 32.3836 19.19 32.4165 19.1206C32.4495 19.0512 32.4684 18.9759 32.4722 18.8992C32.4761 18.8225 32.4648 18.7457 32.439 18.6734C32.4132 18.601 32.3734 18.5344 32.3219 18.4774C32.2703 18.4204 32.2081 18.3742 32.1386 18.3413C32.0692 18.3083 31.994 18.2894 31.9173 18.2856ZM30.0496 15.485C30.1112 15.485 30.174 15.4751 30.2357 15.4545L31.4045 15.0626C31.5516 15.0133 31.6732 14.9076 31.7423 14.7686C31.8115 14.6297 31.8227 14.469 31.7733 14.3219C31.724 14.1748 31.6183 14.0532 31.4794 13.9841C31.3405 13.9149 31.1798 13.9037 31.0326 13.9531L29.8638 14.3449C29.732 14.3889 29.6201 14.4784 29.5483 14.5973C29.4764 14.7162 29.4493 14.8569 29.4716 14.994C29.494 15.1311 29.5644 15.2559 29.6703 15.3458C29.7762 15.4358 29.9107 15.4851 30.0496 15.485ZM10.9792 17.0385C11.056 17.0386 11.1321 17.0235 11.2031 16.9941C11.2741 16.9647 11.3386 16.9216 11.3929 16.8672L12.682 15.5781C12.7898 15.468 12.8498 15.3198 12.849 15.1657C12.8482 15.0116 12.7867 14.8641 12.6777 14.7551C12.5688 14.6461 12.4212 14.5845 12.2671 14.5837C12.113 14.5829 11.9648 14.6429 11.8547 14.7506L10.9792 15.6261L10.1037 14.7506C9.99394 14.6409 9.84512 14.5793 9.68996 14.5793C9.5348 14.5794 9.386 14.641 9.27629 14.7507C9.22195 14.805 9.17885 14.8695 9.14944 14.9405C9.12004 15.0115 9.10491 15.0876 9.10492 15.1644C9.10492 15.2413 9.12007 15.3173 9.14949 15.3883C9.1789 15.4593 9.22202 15.5238 9.27636 15.5781L10.5655 16.8672C10.6198 16.9215 10.6843 16.9647 10.7553 16.9941C10.8263 17.0235 10.9023 17.0386 10.9792 17.0385ZM16.2561 17.0385C16.3329 17.0386 16.409 17.0235 16.48 16.9941C16.551 16.9647 16.6155 16.9216 16.6698 16.8672L17.9589 15.5781C18.0133 15.5238 18.0564 15.4593 18.0858 15.3883C18.1152 15.3173 18.1304 15.2413 18.1304 15.1644C18.1304 15.0876 18.1152 15.0115 18.0858 14.9405C18.0564 14.8695 18.0133 14.805 17.959 14.7507C17.8493 14.641 17.7005 14.5794 17.5453 14.5793C17.3902 14.5793 17.2413 14.6409 17.1316 14.7506L16.2561 15.6261L15.3806 14.7506C15.2708 14.6409 15.122 14.5793 14.9669 14.5793C14.8117 14.5794 14.6629 14.641 14.5532 14.7507C14.4988 14.805 14.4557 14.8695 14.4263 14.9405C14.3969 15.0115 14.3818 15.0876 14.3818 15.1644C14.3818 15.2413 14.397 15.3173 14.4264 15.3883C14.4558 15.4593 14.4989 15.5238 14.5533 15.5781L15.8424 16.8672C15.8967 16.9215 15.9612 16.9647 16.0322 16.9941C16.1032 17.0235 16.1793 17.0386 16.2561 17.0385ZM9.19055 18.4454L8.31511 19.3209L7.43975 18.4455C7.33004 18.3358 7.18124 18.2741 7.02607 18.2741C6.87091 18.2741 6.7221 18.3357 6.61237 18.4454C6.55802 18.4997 6.51491 18.5642 6.48549 18.6352C6.45607 18.7062 6.44093 18.7822 6.44092 18.8591C6.44091 18.9359 6.45604 19.012 6.48545 19.083C6.51485 19.154 6.55795 19.2185 6.61229 19.2728L7.90134 20.5619C7.95567 20.6163 8.02017 20.6594 8.09116 20.6888C8.16216 20.7182 8.23825 20.7334 8.3151 20.7334C8.39194 20.7334 8.46804 20.7183 8.53904 20.6889C8.61004 20.6594 8.67455 20.6163 8.72888 20.562L10.018 19.2729C10.1277 19.1631 10.1894 19.0143 10.1894 18.8591C10.1894 18.704 10.1277 18.5551 10.018 18.4454C9.90829 18.3357 9.75946 18.274 9.60428 18.274C9.4491 18.274 9.30028 18.3357 9.19055 18.4454ZM13.1783 20.562C13.2326 20.6164 13.2971 20.6595 13.3681 20.6889C13.4391 20.7183 13.5152 20.7335 13.5921 20.7335C13.6689 20.7335 13.745 20.7183 13.816 20.6889C13.887 20.6595 13.9515 20.6164 14.0059 20.5621L15.295 19.2729C15.4047 19.1632 15.4664 19.0144 15.4664 18.8592C15.4664 18.704 15.4047 18.5552 15.295 18.4455C15.1853 18.3358 15.0364 18.2741 14.8813 18.2741C14.7261 18.2741 14.5773 18.3358 14.4675 18.4455L13.5921 19.321L12.7167 18.4456C12.607 18.3358 12.4582 18.2742 12.3031 18.2742C12.1479 18.2742 11.9991 18.3358 11.8893 18.4455C11.835 18.4998 11.7919 18.5643 11.7625 18.6353C11.733 18.7062 11.7179 18.7823 11.7179 18.8592C11.7179 18.936 11.733 19.0121 11.7624 19.0831C11.7918 19.154 11.8349 19.2185 11.8893 19.2729L13.1783 20.562Z" fill="#80B501"/>
<path d="M20.5519 28.5747C20.875 28.5747 21.137 28.3128 21.137 27.9896C21.137 27.6665 20.875 27.4045 20.5519 27.4045C20.2287 27.4045 19.9668 27.6665 19.9668 27.9896C19.9668 28.3128 20.2287 28.5747 20.5519 28.5747Z" fill="#80B501"/>
</g>
<defs>
<clipPath id="clip0_156_384">
<rect width="40" height="40" fill="white"/>
</clipPath>
</defs>
</svg>
